<svg version="1.0" xmlns="http://www.w3.org/2000/svg"
 width="2907.000000pt" height="1147.000000pt" viewBox="0 0 2907.000000 1147.000000"
 preserveAspectRatio="xMidYMid meet">

<defs>
<linearGradient id="soulforgeGrad" x1="0%" y1="0%" x2="0%" y2="100%">
<stop offset="0%" style="stop-color:#172659;stop-opacity:1" />
<stop offset="50%" style="stop-color:#164a87;stop-opacity:1" />
<stop offset="100%" style="stop-color:#2e7fc3;stop-opacity:1" />
</linearGradient>
</defs>
<g transform="translate(0.000000,1147.000000) scale(0.100000,-0.100000)"
fill="url(#soulforgeGrad)" stroke="white" stroke-width="300" paint-order="stroke" stroke-linejoin="round">
<path d="M28795 8934 c-203 -120 -360 -187 -490 -210 -22 -4 -74 -15 -115 -26
-111 -29 -352 -35 -1545 -36 -1066 -2 -1219 2 -1425 37 -63 11 -185 30 -270
42 -85 12 -221 35 -303 51 -173 35 -197 34 -141 -3 63 -43 165 -135 214 -193
117 -140 168 -204 191 -241 58 -93 91 -359 70 -571 -17 -165 -22 -310 -26
-749 -2 -220 -8 -551 -14 -735 -5 -184 -13 -924 -16 -1645 -3 -720 -10 -1392
-16 -1493 -10 -177 -8 -209 12 -197 5 4 9 2 9 -4 0 -5 -5 -11 -12 -13 -7 -3
-15 -31 -19 -64 -13 -104 -19 -138 -28 -164 -5 -14 -14 -43 -20 -65 -6 -22
-36 -73 -67 -114 -30 -41 -73 -100 -95 -132 -21 -32 -66 -86 -98 -121 -124
-133 -151 -163 -151 -170 0 -4 34 -8 76 -8 81 0 611 37 631 45 20 7 927 8 944
0 10 -3 20 -2 23 4 7 11 63 4 81 -9 23 -17 2695 4 2752 21 18 6 35 19 38 30
12 35 -6 118 -42 201 -60 137 -73 199 -94 443 -18 200 -19 281 -15 625 5 373
12 509 36 710 16 134 14 152 -12 148 -27 -4 -91 -102 -108 -167 -6 -24 -20
-55 -31 -69 -10 -14 -19 -31 -19 -39 0 -7 -11 -35 -24 -61 -13 -26 -32 -65
-42 -87 -9 -22 -23 -47 -29 -55 -7 -8 -20 -37 -31 -65 -10 -27 -26 -61 -36
-74 l-18 -24 0 26 c0 25 18 76 30 87 3 3 12 25 19 50 14 48 19 61 70 180 18
41 35 82 38 90 11 29 -74 -74 -129 -159 -20 -31 -53 -76 -73 -101 -20 -25 -46
-59 -58 -77 -44 -63 -173 -209 -232 -261 -33 -29 -80 -71 -105 -93 -51 -45
-208 -137 -290 -169 -30 -12 -59 -25 -65 -29 -38 -30 -120 -33 -775 -32 -366
1 -695 4 -732 7 -37 4 -75 3 -85 -1 -37 -15 -91 -15 -103 0 -7 8 -20 15 -30
15 -9 0 -25 9 -36 21 -18 20 -19 51 -22 844 -3 562 0 829 7 843 15 27 65 31
496 36 414 5 616 -5 717 -35 71 -21 156 -57 200 -86 44 -28 54 -9 39 74 -39
213 -21 397 55 553 37 75 142 245 209 336 5 7 6 16 3 20 -10 9 -114 -34 -130
-53 -19 -24 -156 -114 -219 -145 -56 -27 -57 -28 -215 -22 -88 2 -269 11 -404
18 -135 7 -395 14 -579 15 -183 1 -338 4 -343 7 -5 3 -3 13 5 22 8 10 18 28
22 41 9 29 52 71 74 72 9 1 33 0 54 -1 38 -2 38 -1 25 22 -11 19 -13 175 -11
833 1 446 5 830 10 855 l9 45 184 21 c138 15 283 22 570 28 212 3 437 11 500
17 136 13 312 5 500 -22 313 -46 356 -60 581 -193 101 -61 153 -105 214 -186
55 -73 120 -140 135 -140 11 0 11 35 4 178 -12 244 -10 723 5 862 24 229 109
508 226 745 50 100 68 165 47 165 -4 0 -66 -34 -137 -76z m-3325 -404 c0 -5
-4 -10 -10 -10 -5 0 -10 5 -10 10 0 6 5 10 10 10 6 0 10 -4 10 -10z m-20 -90
c0 -5 -9 -10 -20 -10 -11 0 -20 5 -20 10 0 6 9 10 20 10 11 0 20 -4 20 -10z
m1697 -3002 c-3 -8 -6 -5 -6 6 -1 11 2 17 5 13 3 -3 4 -12 1 -19z m973 -2218
c0 -5 -9 -10 -21 -10 -11 0 -17 5 -14 10 3 6 13 10 21 10 8 0 14 -4 14 -10z
m-2167 -26 c18 -6 23 -39 7 -49 -5 -3 -34 1 -65 10 -43 13 -55 21 -55 37 0 18
5 19 48 13 26 -3 55 -8 65 -11z m77 -27 c0 -23 -17 -38 -33 -31 -21 8 -21 18
-1 38 16 17 34 13 34 -7z m1658 -56 c2 -5 12 -7 22 -4 11 3 20 1 20 -5 0 -16
-67 -26 -93 -15 -12 5 -56 8 -97 7 -280 -7 -556 -7 -549 0 2 3 126 8 274 11
149 4 276 11 283 15 19 10 136 3 140 -9z m111 -5 c-12 -10 -59 -15 -59 -6 0 5
14 10 32 10 17 0 29 -2 27 -4z m-1114 -15 c-6 -6 -163 -10 -370 -11 -476 -2
-495 -2 -495 10 0 7 152 10 437 10 271 0 433 -4 428 -9z m112 3 c-3 -3 -12 -4
-19 -1 -8 3 -5 6 6 6 11 1 17 -2 13 -5z"/>
<path d="M2950 8741 c-90 -46 -120 -60 -185 -85 -38 -15 -90 -36 -114 -47 -62
-28 -306 -109 -330 -109 -11 0 -22 -4 -25 -9 -4 -5 -37 -21 -75 -35 -145 -56
-280 -159 -470 -361 -112 -119 -129 -135 -145 -135 -20 0 -17 18 14 86 11 23
20 65 21 94 3 57 26 90 63 90 20 1 20 1 2 15 -21 16 -22 13 41 97 98 129 119
152 187 198 68 45 97 70 81 70 -13 0 -154 -76 -206 -111 -79 -54 -259 -228
-310 -301 -24 -34 -61 -80 -83 -103 -21 -22 -50 -56 -64 -75 -14 -19 -43 -57
-63 -85 -56 -75 -148 -250 -155 -295 -4 -21 -13 -41 -20 -44 -8 -3 -14 -13
-14 -23 0 -9 -11 -48 -24 -87 -60 -179 -80 -362 -80 -726 1 -392 25 -670 60
-697 13 -9 15 -22 10 -53 -6 -39 -4 -44 31 -77 21 -19 99 -70 173 -114 74 -44
142 -83 150 -89 8 -5 71 -41 140 -80 69 -40 144 -85 168 -101 24 -16 45 -29
48 -29 3 0 76 -46 162 -103 323 -212 405 -269 524 -362 43 -33 108 -82 145
-109 179 -130 411 -332 550 -476 29 -30 53 -58 53 -62 0 -3 16 -26 36 -50 165
-197 229 -439 167 -633 -46 -143 -167 -283 -345 -398 -109 -70 -224 -117 -287
-117 -26 0 -73 -5 -105 -11 -82 -15 -180 7 -346 78 -63 26 -234 126 -280 162
-57 46 -140 127 -160 156 -8 13 -34 48 -57 78 -24 31 -43 59 -43 62 0 4 -11
21 -23 38 -31 42 -197 351 -197 367 0 27 -82 180 -108 200 -21 17 -35 20 -66
15 -91 -14 -174 -84 -268 -225 -65 -98 -237 -329 -342 -460 -122 -151 -415
-458 -546 -571 -47 -41 -93 -83 -102 -94 -19 -22 -34 -63 -25 -71 10 -10 152
-23 322 -28 94 -3 215 -10 270 -16 55 -5 111 -9 125 -9 23 1 23 1 -5 10 -44
14 -133 28 -280 44 l-130 14 145 -5 c141 -5 228 -15 300 -33 160 -42 179 -49
161 -60 -9 -6 -10 -11 -2 -15 6 -4 11 -2 11 4 0 29 162 -45 275 -125 28 -19
77 -53 110 -74 33 -22 98 -67 145 -100 47 -34 116 -83 154 -109 38 -26 81 -56
96 -67 15 -11 48 -34 73 -52 93 -64 112 -79 137 -101 14 -13 41 -33 60 -44 45
-28 141 -101 201 -153 25 -22 102 -89 172 -148 69 -60 128 -115 131 -123 7
-19 30 -18 46 2 17 19 120 98 151 115 13 6 67 45 119 85 52 39 105 75 118 79
24 7 91 49 177 110 28 19 74 50 102 68 29 17 69 44 90 58 21 14 76 51 123 81
165 106 189 124 336 243 141 113 223 190 299 280 250 294 357 541 444 1025 39
211 37 312 -10 645 -46 330 -81 448 -183 610 -17 28 -37 62 -44 78 -12 29 -27
35 -36 15 -4 -7 -4 -3 -2 10 4 18 1 22 -11 18 -12 -5 -14 -1 -9 20 8 29 -8 54
-34 54 -9 0 -30 16 -46 35 -83 99 -127 137 -163 141 -43 5 -41 -24 5 -73 46
-48 174 -236 174 -256 0 -7 9 -22 20 -32 11 -10 22 -27 26 -39 3 -11 12 -34
19 -51 42 -95 55 -129 55 -138 0 -6 7 -18 15 -27 9 -10 20 -32 25 -49 13 -46
-15 -55 -47 -15 -12 16 -23 33 -23 38 0 19 -143 299 -189 368 -87 133 -403
429 -591 553 -25 16 -79 54 -120 85 -41 30 -86 63 -100 73 -14 9 -45 33 -70
52 -25 19 -65 47 -90 61 -25 15 -69 47 -99 71 -29 24 -59 43 -66 43 -7 0 -18
7 -25 15 -7 8 -37 29 -67 46 -30 17 -101 66 -158 108 -57 42 -158 114 -224
160 -130 92 -300 254 -352 336 -47 73 -79 170 -84 250 -4 58 -3 66 7 45 36
-79 57 -129 68 -163 23 -72 348 -377 402 -377 19 0 19 1 1 23 -43 53 -93 104
-151 154 -60 50 -100 115 -131 208 -39 119 -35 197 14 317 43 104 72 151 155
247 59 69 191 165 267 194 227 88 516 57 715 -76 49 -32 98 -72 110 -88 13
-16 34 -44 48 -62 35 -45 57 -86 85 -162 28 -73 33 -180 14 -276 -17 -89 14
-143 102 -172 36 -12 55 -14 84 -6 26 8 40 7 50 -1 32 -27 136 48 213 151 49
66 133 183 172 240 19 28 47 65 61 83 15 17 39 49 55 72 43 61 137 184 170
223 118 139 185 211 357 386 108 110 197 203 197 207 0 4 -26 5 -57 3 -32 -3
-137 -12 -233 -21 -218 -19 -278 -20 -360 -6 -91 16 -228 32 -272 32 -21 0
-38 5 -38 10 0 22 -38 8 -71 -26 -18 -20 -63 -60 -99 -89 -88 -72 -143 -125
-164 -158 -9 -15 -36 -39 -59 -54 -23 -15 -45 -32 -49 -38 -4 -5 -10 -6 -14
-3 -3 4 1 14 10 23 9 9 16 22 16 28 0 7 8 20 18 29 9 9 22 23 29 30 6 7 28 28
48 46 20 19 34 36 32 38 -2 3 20 30 49 61 30 30 51 60 48 65 -4 6 4 23 16 40
l22 30 -24 23 c-21 20 -58 38 -80 40 -4 0 -15 7 -25 15 -10 9 -34 22 -53 29
-19 7 -55 23 -80 34 -49 23 -56 26 -210 87 -58 24 -151 65 -208 91 -56 27
-107 49 -113 49 -6 0 -23 9 -38 19 -34 25 -156 71 -185 71 -11 -1 -37 -9 -56
-19z m-700 -995 c0 -14 -29 -31 -38 -21 -6 6 18 35 29 35 5 0 9 -6 9 -14z
m-172 -571 c-3 -3 -9 2 -12 12 -6 14 -5 15 5 6 7 -7 10 -15 7 -18z m2282
-1998 c0 -5 -4 -5 -10 -2 -5 3 -10 14 -10 23 0 15 2 15 10 2 5 -8 10 -19 10
-23z m-412 -297 c56 -31 140 -61 187 -66 53 -7 81 -29 50 -41 -22 -8 -68 3
-160 39 -81 31 -148 78 -112 78 9 0 25 -4 35 -10z"/>
<path d="M12837 7966 c11 -19 177 -190 249 -256 73 -67 135 -186 158 -300 39
-200 39 -235 33 -1889 -7 -1513 -14 -1963 -37 -2251 -31 -396 -46 -512 -91
-690 -59 -236 -79 -291 -150 -417 -45 -81 -167 -212 -298 -323 -81 -69 -111
-100 -111 -115 0 -15 60 -52 295 -183 160 -89 300 -174 331 -200 6 -5 28 -21
50 -35 21 -13 57 -39 79 -56 22 -17 45 -34 50 -38 12 -9 144 -124 194 -168 18
-16 70 -68 115 -114 44 -46 91 -93 104 -106 13 -12 42 -45 65 -73 23 -28 74
-88 113 -134 80 -95 172 -215 249 -329 39 -58 46 -69 70 -107 43 -70 91 -136
101 -139 7 -2 15 4 19 14 12 28 14 2177 3 3483 -9 1123 -8 1185 8 1197 31 22
279 14 519 -17 130 -17 255 -58 400 -130 78 -39 144 -70 148 -70 10 0 2 50
-24 153 -18 71 -19 114 -19 484 1 223 -2 408 -5 411 -3 3 -5 -1 -5 -8 0 -7 -3
-10 -6 -7 -4 4 -2 12 3 19 15 19 57 158 50 164 -8 8 -69 -30 -136 -86 -74 -61
-156 -119 -187 -130 -13 -5 -92 -17 -176 -25 -166 -17 -852 -21 -877 -6 -16
10 -3 38 42 91 43 50 72 67 149 85 37 10 71 22 75 29 4 6 10 275 13 599 7 653
2 610 76 628 21 5 179 15 350 21 428 16 518 3 714 -98 98 -51 226 -186 286
-301 32 -61 128 -172 139 -161 4 4 11 62 16 130 5 68 13 146 18 173 5 28 12
75 16 105 10 89 42 213 106 410 23 67 102 237 141 302 37 59 102 177 147 261
22 43 48 88 56 100 25 36 1 31 -72 -16 -37 -24 -88 -57 -113 -72 -89 -57 -389
-173 -412 -159 -4 3 -43 -2 -86 -10 -42 -8 -111 -18 -152 -21 -41 -4 -149 -15
-240 -26 -148 -19 -209 -20 -620 -17 -469 5 -453 3 -790 54 -265 40 -304 48
-450 91 -228 67 -272 84 -445 170 -282 141 -261 132 -248 109z m3093 -356 c0
-5 -5 -10 -11 -10 -5 0 -7 5 -4 10 3 6 8 10 11 10 2 0 4 -4 4 -10z m-609
-2072 c4 -37 -2 -302 -6 -306 -3 -3 -5 3 -6 14 0 10 -2 28 -5 39 -9 43 -16
214 -10 239 7 27 25 36 27 14z"/>
<path d="M23970 7481 c0 -5 5 -13 10 -16 6 -3 10 -2 10 4 0 5 -4 13 -10 16 -5
3 -10 2 -10 -4z"/>
<path d="M5903 7416 c-15 -26 -46 -69 -68 -95 -23 -26 -51 -63 -63 -83 -12
-19 -59 -68 -104 -108 -77 -68 -266 -260 -384 -390 -65 -72 -234 -300 -234
-316 0 -4 -12 -23 -27 -43 -16 -20 -33 -45 -39 -56 -6 -11 -28 -51 -49 -90
-59 -108 -65 -119 -65 -130 0 -6 -10 -26 -23 -45 -99 -151 -193 -549 -204
-865 -9 -243 31 -542 97 -727 11 -32 20 -63 20 -69 0 -24 173 -362 228 -447
101 -157 239 -334 343 -443 85 -88 370 -343 509 -455 78 -63 177 -124 202
-124 22 0 177 84 265 143 167 113 203 140 270 200 38 34 93 82 123 107 48 38
107 92 209 190 120 114 250 276 347 430 88 141 188 374 233 545 46 178 53 217
65 386 12 163 7 543 -7 566 -3 4 -22 78 -42 163 -20 85 -44 171 -54 190 -10
20 -22 50 -26 68 -3 17 -10 34 -15 37 -12 8 -41 -6 -34 -16 3 -5 1 -9 -3 -9
-5 0 -16 17 -25 38 -28 62 -17 -36 11 -103 24 -55 31 -83 28 -112 -1 -18 -6
-33 -10 -33 -4 0 -3 -9 3 -20 6 -11 8 -20 6 -20 -11 0 -36 60 -36 87 0 15 -12
46 -25 68 -14 22 -25 48 -25 57 0 10 -11 42 -25 72 -14 30 -25 58 -25 61 0 4
-21 50 -47 103 -44 89 -138 238 -213 337 -16 22 -38 52 -47 66 -43 62 -290
329 -305 329 -5 0 -40 32 -77 70 -38 39 -74 70 -80 70 -6 0 -11 7 -11 14 0 15
-59 66 -76 66 -5 0 -20 16 -34 35 -14 19 -33 37 -42 40 -10 4 -30 19 -45 36
-31 32 -73 38 -93 14 -21 -25 -28 -92 -19 -175 9 -81 24 -113 82 -175 53 -57
27 -59 -30 -2 -31 31 -62 57 -69 57 -7 0 -44 -32 -81 -72 -109 -115 -143 -144
-143 -123 0 16 33 64 64 94 45 42 105 132 117 174 5 17 9 50 9 72 0 51 -46
207 -64 221 -8 5 -16 26 -18 45 -3 31 -6 34 -40 37 -41 3 -43 5 -29 31 7 12 4
26 -9 46 l-19 28 -28 -47z m-33 -167 c0 -11 -4 -17 -10 -14 -5 3 -10 13 -10
21 0 8 5 14 10 14 6 0 10 -9 10 -21z m-160 -153 c0 -2 -7 -9 -15 -16 -13 -11
-14 -10 -9 4 5 14 24 23 24 12z m-243 -291 c-4 -8 -11 -15 -17 -15 -7 0 -7 6
0 21 13 23 26 19 17 -6z m843 -33 c0 -8 -1 -13 -3 -11 -1 2 -9 12 -16 22 -12
15 -12 17 3 11 9 -3 16 -13 16 -22z m-882 -12 c-14 -22 -24 -19 -15 5 4 8 11
15 17 15 6 0 6 -7 -2 -20z m1333 -169 c74 -80 105 -122 80 -106 -17 10 -145
144 -149 156 -9 24 20 3 69 -50z m-592 -121 c131 -99 344 -336 457 -507 105
-159 170 -308 206 -468 21 -89 23 -127 23 -355 0 -164 -5 -280 -13 -325 -19
-105 -70 -270 -108 -353 -19 -40 -34 -75 -34 -78 0 -2 -30 -53 -66 -112 -97
-156 -162 -233 -299 -356 -84 -75 -203 -199 -221 -231 -9 -16 -21 -8 -111 82
-55 55 -129 122 -163 148 -93 72 -166 149 -195 204 -13 27 -30 53 -36 57 -6 3
-22 32 -36 63 -13 31 -34 76 -47 101 -13 25 -33 77 -45 115 -12 39 -26 79 -31
90 -12 27 -45 166 -70 298 -15 83 -20 149 -20 284 0 382 84 666 272 918 66 88
344 395 358 395 5 0 21 20 36 45 17 29 33 45 46 45 10 0 54 -27 97 -60z m719
-141 c8 -12 11 -23 9 -26 -7 -6 -47 34 -47 47 0 15 24 2 38 -21z"/>
<path d="M23952 7436 c-34 -53 -34 -55 -1 -116 5 -8 18 -35 29 -59 20 -44 20
-44 1 -63 -11 -10 -25 -18 -30 -18 -19 0 -101 55 -106 72 -12 34 -36 29 -92
-22 -30 -27 -60 -50 -67 -50 -6 0 -29 -9 -51 -20 -22 -11 -51 -20 -66 -20 -14
0 -34 -9 -44 -20 -10 -11 -25 -20 -34 -20 -32 0 -376 -181 -419 -220 -24 -22
-46 -40 -51 -40 -4 0 -25 -16 -47 -35 -21 -19 -43 -35 -47 -35 -9 0 -34 -29
-127 -146 -100 -127 -107 -137 -174 -245 -22 -35 -44 -67 -49 -70 -10 -7 -9
-6 -80 -133 -27 -47 -57 -96 -67 -108 -18 -22 -19 -22 -19 -3 0 11 4 37 8 59
10 40 4 66 -24 101 -19 24 -31 14 -70 -65 -15 -30 -34 -66 -42 -80 -7 -14 -23
-45 -34 -70 -11 -25 -26 -58 -34 -75 -41 -89 -58 -134 -72 -194 -8 -36 -21
-82 -28 -101 -16 -42 -42 -201 -54 -325 -14 -137 -6 -475 13 -580 24 -135 65
-282 131 -463 24 -67 142 -298 182 -355 92 -134 185 -248 273 -336 116 -118
190 -174 415 -320 119 -77 780 -381 829 -381 49 0 83 23 151 107 39 46 79 95
90 107 11 12 47 57 80 101 33 44 66 86 73 95 23 26 123 163 149 204 20 32 24
47 19 85 -3 25 -10 84 -15 131 -8 79 -5 1173 4 1248 2 18 13 45 24 61 12 16
21 36 21 44 0 23 -82 102 -130 127 -45 23 -68 19 -33 -5 24 -16 65 -90 56 -99
-11 -11 -58 -6 -128 13 -39 10 -160 29 -270 41 -115 12 -251 34 -320 51 -66
16 -131 29 -143 29 -20 0 -21 -3 -12 -20 6 -11 57 -66 114 -122 71 -72 111
-120 130 -160 l28 -57 1 -458 c0 -480 -7 -586 -40 -611 -22 -16 -82 -8 -187
25 -80 26 -107 40 -234 125 -264 175 -502 553 -581 920 -39 183 -37 482 5 657
85 353 198 562 421 779 134 129 257 210 365 238 109 28 221 3 369 -85 107 -63
177 -135 231 -236 50 -93 76 -107 100 -53 27 60 55 151 78 253 12 55 31 129
41 164 11 35 19 71 19 82 0 10 7 40 17 66 10 30 16 76 15 121 -1 65 -5 78 -29
109 -15 19 -43 56 -61 81 -18 26 -70 87 -115 135 -44 48 -98 115 -119 148 -21
33 -45 62 -53 65 -8 4 -15 14 -15 24 0 30 -52 50 -68 26z"/>
<path d="M19071 7126 c2 -2 34 -28 70 -58 120 -96 295 -255 337 -306 83 -99
85 -107 95 -462 12 -454 11 -1900 -2 -2200 -14 -325 -30 -436 -74 -509 -38
-64 -119 -147 -185 -190 -26 -17 -67 -44 -92 -61 -25 -17 -61 -41 -80 -53 -58
-37 -51 -53 27 -67 75 -14 1193 -26 1361 -14 138 9 133 20 -81 173 -42 30 -99
78 -128 107 l-51 52 -10 104 c-13 149 -23 1308 -10 1308 9 0 84 -124 114 -190
9 -19 64 -138 122 -263 58 -125 106 -233 106 -238 0 -6 6 -23 14 -37 8 -15 54
-115 102 -222 48 -107 108 -240 134 -296 26 -56 61 -130 76 -165 101 -225 232
-417 398 -586 108 -109 268 -242 322 -268 36 -17 135 -19 204 -4 127 27 239
39 375 39 198 0 431 11 446 21 20 12 -11 41 -95 90 -246 145 -474 414 -705
829 -102 183 -478 941 -522 1053 -11 28 -31 74 -45 102 -13 29 -24 58 -24 66
0 8 50 64 111 124 194 193 270 311 339 530 51 162 75 338 66 475 -8 120 -82
360 -107 345 -5 -4 -9 9 -9 27 -1 57 -41 88 -70 53 -16 -20 -3 -91 46 -245 16
-51 19 -99 5 -85 -5 6 -21 46 -36 90 -14 44 -46 121 -70 170 -24 50 -47 97
-50 105 -3 8 -16 31 -28 51 -115 189 -275 344 -426 411 -25 12 -58 27 -73 34
-14 8 -36 14 -47 14 -12 0 -32 7 -45 15 -22 14 -25 14 -40 -1 -15 -15 -18 -15
-29 -1 -7 10 -36 19 -74 23 l-63 7 0 -37 c0 -48 -18 -47 -22 2 l-3 37 -59 3
c-32 2 -64 -2 -69 -7 -6 -6 -11 -34 -11 -62 -1 -30 -6 -54 -12 -56 -8 -3 -10
15 -7 61 5 56 3 67 -12 72 -12 5 -23 0 -36 -17 -14 -18 -19 -20 -19 -8 0 24
-56 32 -93 14 -23 -12 -32 -12 -38 -3 -6 9 -11 8 -24 -2 -11 -9 -19 -10 -23
-3 -4 5 -24 13 -44 17 -34 6 -38 5 -44 -19 -3 -14 -3 -37 0 -51 5 -19 3 -25
-6 -22 -8 3 -12 18 -10 41 l3 35 -50 -2 c-41 -2 -50 0 -54 16 -4 15 -16 18
-75 18 -39 0 -74 -5 -77 -10 -5 -8 -11 -7 -20 0 -8 6 -58 14 -112 16 -133 7
-102 -9 62 -30 72 -10 149 -22 172 -28 23 -6 46 -7 51 -4 6 3 13 -1 16 -10 4
-10 13 -13 27 -9 30 10 20 -16 -12 -32 -18 -9 -42 -9 -89 -3 -36 6 -99 15
-140 21 -41 6 -106 19 -145 29 -38 10 -104 22 -145 25 -41 4 -103 13 -138 21
-35 8 -79 14 -98 14 -19 0 -34 5 -34 10 0 6 3 9 8 8 4 -1 50 2 102 7 82 7 90
9 60 17 -19 4 -69 9 -110 9 -41 1 -102 7 -135 15 -56 13 -144 19 -134 10z
m1684 -201 c1 -47 -1 -55 -17 -55 -15 0 -17 6 -12 48 11 93 26 97 29 7z m-522
18 c-6 -35 -20 -43 -30 -18 -3 9 3 25 12 35 22 25 24 23 18 -17z m207 -23 c0
-5 -4 -10 -10 -10 -5 0 -10 5 -10 10 0 6 5 10 10 10 6 0 10 -4 10 -10z m225
-30 c3 -5 -3 -10 -14 -10 -12 0 -21 5 -21 10 0 6 6 10 14 10 8 0 18 -4 21 -10z
m173 -18 c3 -17 -2 -22 -20 -22 -13 0 -30 5 -38 10 -12 8 -11 10 8 10 13 0 22
6 22 16 0 23 24 11 28 -14z m132 -66 c47 -32 90 -75 90 -89 0 -3 -18 6 -40 20
-22 15 -40 30 -40 35 0 8 -74 44 -104 49 -11 2 -21 10 -24 18 -8 25 62 5 118
-33z m128 -125 c3 -8 -1 -12 -9 -9 -7 2 -15 10 -17 17 -3 8 1 12 9 9 7 -2 15
-10 17 -17z m-567 -111 c149 -21 297 -97 390 -198 52 -56 104 -166 126 -267
14 -62 18 -125 18 -280 -1 -181 -3 -207 -24 -275 -36 -117 -61 -169 -117 -246
-71 -96 -134 -137 -254 -167 -52 -13 -123 -36 -158 -51 -61 -26 -63 -26 -87
-9 -13 10 -25 21 -25 25 0 4 -37 53 -82 110 l-83 103 0 615 0 615 35 17 c40
20 153 24 261 8z m777 -2120 c-2 -7 -10 1 -17 16 -12 27 -11 28 4 12 10 -9 16
-21 13 -28z"/>
<path d="M7399 7102 c5 -10 73 -78 150 -151 220 -208 281 -302 300 -466 7 -56
11 -376 11 -851 0 -835 8 -1029 46 -1160 22 -78 100 -242 130 -275 8 -8 14
-19 14 -23 0 -10 95 -152 136 -203 19 -23 34 -46 34 -51 0 -5 8 -16 17 -23 9
-8 29 -32 45 -54 52 -71 149 -176 358 -386 340 -340 493 -479 528 -479 9 0
219 206 326 321 33 35 110 116 170 179 192 200 309 340 448 539 81 114 181
314 198 392 10 43 10 192 1 665 -6 335 -12 674 -13 754 -2 80 -2 308 0 508 1
286 5 378 18 435 8 40 18 89 21 110 3 20 11 37 18 37 6 0 52 38 101 85 49 46
94 84 100 85 21 0 269 -265 302 -323 27 -49 33 -71 42 -169 22 -246 15 -2283
-9 -2638 -14 -203 -36 -325 -67 -370 -25 -37 -68 -72 -308 -253 -82 -61 -151
-117 -153 -123 -7 -20 115 -24 1082 -34 523 -6 1031 -14 1129 -20 99 -5 183
-7 187 -4 14 8 18 103 26 559 10 564 10 593 0 628 -16 59 -66 23 -216 -156
-154 -184 -317 -341 -385 -371 -96 -42 -138 -47 -374 -44 l-224 2 -24 29 c-20
23 -24 40 -24 90 -1 34 -3 159 -6 277 -8 307 -7 2047 1 2350 l6 255 37 55 c48
71 100 128 134 146 29 15 62 70 51 86 -11 19 -127 2 -182 -26 -83 -41 -197
-132 -215 -171 -9 -19 -21 -35 -27 -35 -5 0 -28 20 -52 44 -41 43 -73 62 -202
120 -33 15 -73 34 -90 41 -77 36 -182 56 -331 62 -142 6 -156 5 -220 -18 -75
-25 -119 -50 -192 -106 -26 -20 -58 -41 -72 -47 -14 -6 -37 -19 -53 -30 -34
-23 -40 -21 -202 46 -135 56 -275 106 -335 118 -19 4 -68 15 -107 24 -40 8
-86 13 -103 9 l-31 -6 133 -131 c86 -84 144 -151 163 -186 l30 -55 3 -760 c4
-1031 -10 -1364 -68 -1550 -38 -123 -91 -196 -263 -363 -113 -111 -150 -142
-167 -142 -22 0 -69 31 -121 81 -61 60 -237 294 -274 366 -16 32 -37 69 -46
83 -18 29 -79 181 -79 198 0 7 -4 12 -9 12 -5 0 -11 15 -15 33 -3 17 -15 61
-25 97 -54 182 -60 290 -62 1165 -3 724 -2 763 16 820 18 54 32 73 159 203
133 135 138 142 109 142 -77 0 -267 -63 -463 -153 -41 -19 -85 -37 -96 -41
-12 -4 -29 -15 -39 -26 -17 -19 -18 -19 -34 -1 -9 11 -61 33 -116 51 -55 18
-140 49 -190 70 -137 56 -387 120 -474 120 -27 0 -30 -2 -22 -18z m2741 -332
c0 -5 -4 -10 -10 -10 -5 0 -10 5 -10 10 0 6 5 10 10 10 6 0 10 -4 10 -10z
m1220 -88 c0 -31 -3 -68 -7 -81 -6 -23 -7 -23 -14 -5 -9 23 -11 138 -3 147 15
15 24 -8 24 -61z m1309 -2494 c-7 -13 -24 -41 -39 -63 -15 -22 -57 -86 -94
-142 -70 -106 -92 -131 -104 -119 -4 4 3 16 16 26 12 10 22 22 22 26 0 4 8 17
19 28 24 27 110 153 119 174 4 10 18 34 31 55 25 40 50 52 30 15z m-3765 -214
c9 -8 16 -20 16 -25 0 -5 6 -9 13 -9 6 0 27 -13 45 -28 18 -15 50 -32 70 -37
26 -8 38 -17 42 -35 3 -15 15 -26 30 -30 22 -5 46 -51 33 -64 -6 -6 -38 11
-76 42 -16 12 -35 22 -43 22 -8 0 -17 7 -20 15 -3 8 -24 28 -45 43 -21 16 -57
50 -80 75 -35 40 -38 47 -21 47 12 0 28 -7 36 -16z m2752 -264 c150 -12 184
-18 165 -29 -7 -5 -89 -9 -182 -10 -159 -2 -169 -1 -169 17 0 37 -2 37 186 22z"/>
<path d="M17190 7035 c-77 -55 -100 -70 -160 -102 -19 -10 -59 -37 -88 -61
-30 -23 -58 -42 -62 -42 -18 0 -147 -103 -224 -178 -78 -76 -100 -104 -166
-212 -19 -31 -40 -64 -47 -72 -17 -19 -196 -375 -211 -415 -6 -18 -16 -33 -21
-33 -6 0 -10 -3 -9 -7 5 -27 -30 -107 -69 -156 -25 -31 -28 -30 -14 6 6 14 6
40 1 63 -6 26 -5 43 3 53 10 11 8 13 -10 7 -19 -6 -23 -2 -28 27 -6 28 -10 34
-27 29 -11 -2 -27 -21 -35 -41 -9 -20 -24 -55 -35 -78 -10 -22 -23 -81 -29
-129 -6 -48 -17 -97 -25 -109 -14 -21 -27 -128 -40 -320 -8 -105 9 -296 37
-445 18 -90 64 -245 124 -410 56 -156 216 -476 255 -510 3 -3 35 -45 70 -94
72 -100 306 -344 402 -421 201 -160 281 -218 407 -295 31 -19 75 -50 98 -67
43 -35 62 -41 64 -20 1 6 1 152 0 322 l-3 310 -36 55 c-39 61 -161 217 -232
297 -103 117 -132 152 -173 209 -59 80 -197 283 -197 288 0 2 -20 35 -45 73
-69 103 -183 342 -205 429 -24 93 -25 173 -5 274 19 89 73 257 86 265 5 4 9
13 9 22 0 52 222 471 351 663 101 149 280 357 388 451 l74 64 -7 95 c-7 109
-23 179 -49 204 -9 10 -17 28 -17 42 0 13 -6 24 -12 23 -7 0 -47 -25 -88 -54z
m-1123 -1152 c-3 -10 -5 -4 -5 12 0 17 2 24 5 18 2 -7 2 -21 0 -30z m-7 -128
c-12 -23 -14 -23 -26 -7 -19 24 -17 30 9 34 30 5 32 2 17 -27z m-40 -135 c0
-22 -16 -35 -25 -20 -9 14 4 52 16 45 5 -4 9 -15 9 -25z"/>
<path d="M19540 7070 c83 -18 100 -20 100 -11 0 11 -51 21 -99 20 l-36 -1 35
-8z"/>
<path d="M17785 7058 c-2 -7 -9 -35 -15 -63 -6 -27 -18 -77 -25 -110 -8 -33
-17 -84 -21 -113 l-6 -53 120 -122 c228 -232 349 -404 515 -734 118 -233 201
-438 237 -582 48 -191 24 -289 -138 -576 -189 -335 -359 -589 -498 -744 -23
-25 -81 -98 -130 -161 l-89 -115 -3 -337 c-1 -186 1 -338 5 -338 4 0 24 11 45
25 55 36 103 66 193 121 44 27 113 73 154 104 40 30 83 62 95 70 131 89 361
317 482 475 92 122 218 349 290 522 127 307 205 761 174 1020 -7 54 -16 105
-20 113 -5 9 -11 36 -15 60 -10 72 -43 166 -54 155 -3 -3 -6 -29 -8 -58 -3
-45 -6 -73 -12 -125 -1 -8 -6 -9 -18 -3 -10 5 -26 12 -35 15 -12 3 -18 15 -18
33 0 15 -7 41 -15 57 -8 15 -15 36 -15 45 0 9 -24 91 -54 182 -54 166 -137
346 -205 449 -21 30 -50 78 -66 105 -81 142 -270 329 -505 500 -63 45 -128 94
-145 108 -81 66 -189 107 -200 75z m1260 -1598 c-3 -5 -12 -10 -18 -10 -7 0
-6 4 3 10 19 12 23 12 15 0z"/>
<path d="M22860 6800 c-36 -32 -62 -59 -58 -60 3 0 35 27 70 60 34 33 61 60
58 60 -3 0 -35 -27 -70 -60z"/>
<path d="M2620 6562 c0 -6 12 -19 26 -29 14 -10 44 -33 65 -52 22 -19 53 -41
69 -50 30 -16 261 -171 270 -181 11 -11 101 -70 108 -70 5 0 21 -14 38 -31 16
-17 45 -39 64 -48 19 -10 65 -35 103 -55 37 -21 67 -33 67 -28 0 25 -94 102
-185 152 -33 18 -67 39 -76 46 -8 8 -19 14 -24 14 -4 0 -30 16 -57 36 -27 19
-60 39 -74 44 -13 5 -24 14 -24 20 0 6 -21 21 -47 33 -50 23 -83 44 -136 88
-18 14 -59 41 -92 59 -33 18 -68 40 -77 48 -11 9 -18 11 -18 4z"/>
<path d="M21585 6470 c3 -5 8 -10 11 -10 2 0 4 5 4 10 0 6 -5 10 -11 10 -5 0
-7 -4 -4 -10z"/>
<path d="M22539 6423 c-13 -16 -12 -17 4 -4 9 7 17 15 17 17 0 8 -8 3 -21 -13z"/>
<path d="M22464 6343 c4 -7 3 -13 -3 -13 -17 0 -45 -50 -34 -61 15 -15 43 1
54 29 8 20 6 29 -7 41 -9 9 -14 10 -10 4z"/>
<path d="M17479 6147 c-70 -93 -290 -428 -384 -583 -52 -85 -150 -217 -240
-324 -107 -127 -109 -129 -85 -165 11 -17 44 -60 72 -97 29 -36 103 -132 163
-213 61 -81 130 -174 155 -206 25 -32 74 -99 110 -149 36 -51 109 -146 164
-212 l98 -120 32 38 c17 21 38 48 46 60 8 13 59 79 112 148 53 68 119 158 147
198 28 40 73 105 101 143 27 39 67 95 87 125 49 71 164 225 202 270 17 19 31
42 31 52 0 9 -28 52 -62 96 -106 135 -151 194 -192 252 -58 82 -199 307 -297
475 -91 155 -181 275 -206 275 -4 0 -29 -29 -54 -63z m7 -253 c-3 -9 -6 -19
-6 -22 0 -4 -16 -25 -35 -46 -58 -66 -56 -26 3 52 25 33 49 43 38 16z"/>
<path d="M7350 6055 c0 -8 7 -15 16 -15 14 0 14 3 4 15 -7 8 -14 15 -16 15 -2
0 -4 -7 -4 -15z"/>
<path d="M16180 6049 c0 -9 -16 -32 -36 -52 -28 -28 -33 -38 -22 -42 8 -3 26
-1 40 4 20 7 27 18 31 48 2 21 0 42 -4 48 -6 5 -9 3 -9 -6z"/>
<path d="M16090 5919 c0 -5 5 -7 10 -4 6 3 10 8 10 11 0 2 -4 4 -10 4 -5 0
-10 -5 -10 -11z"/>
<path d="M16115 5910 c-3 -5 -2 -10 4 -10 5 0 13 5 16 10 3 6 2 10 -4 10 -5 0
-13 -4 -16 -10z"/>
<path d="M25840 5700 c0 -28 4 -40 14 -40 23 0 29 19 16 51 -17 41 -30 36 -30
-11z"/>
<path d="M860 2881 c0 -6 8 -11 18 -11 9 0 28 -3 42 -6 18 -5 22 -4 15 4 -15
17 -75 27 -75 13z"/>
</g>
</svg>