<svg version="1.0" xmlns="http://www.w3.org/2000/svg"
 width="1258.000000pt" height="1543.000000pt" viewBox="0 0 1258.000000 1543.000000"
 preserveAspectRatio="xMidYMid meet">

<g transform="translate(0.000000,1543.000000) scale(0.100000,-0.100000)"
fill="#000000" stroke="none">
<path d="M6705 15379 c-164 -34 -289 -86 -480 -202 -77 -46 -128 -89 -221
-181 -189 -189 -285 -351 -341 -576 -27 -111 -23 -415 7 -485 5 -11 11 -29 13
-40 8 -33 102 -256 135 -320 17 -33 61 -94 98 -135 120 -135 164 -270 164
-507 0 -168 -15 -243 -74 -382 -67 -154 -160 -261 -376 -433 -90 -71 -138
-119 -254 -253 -109 -126 -151 -205 -209 -395 -71 -233 -77 -278 -52 -385 17
-73 17 -73 -4 -104 -43 -61 -104 -54 -149 16 -71 111 -97 234 -89 411 7 143
-3 148 -43 23 -39 -119 -49 -174 -61 -321 -24 -303 23 -563 131 -734 17 -26
30 -49 30 -52 0 -3 6 -11 13 -18 27 -29 55 -64 60 -77 4 -11 6 -11 6 2 1 8 -8
25 -20 38 -37 39 -12 35 38 -6 56 -46 83 -59 83 -38 0 7 -4 16 -10 20 -16 10
-52 65 -42 65 5 0 26 -14 47 -30 21 -17 40 -29 42 -27 2 3 -1 16 -6 31 -13 33
-9 33 46 -4 24 -16 49 -30 54 -30 6 0 -3 24 -20 54 -17 29 -31 62 -31 72 0 11
-9 34 -20 52 l-21 34 23 -8 c21 -6 53 -30 180 -131 22 -18 44 -33 48 -33 4 0
-6 25 -21 56 -29 56 -30 80 -3 70 18 -7 18 -1 -6 62 -19 51 -39 202 -27 202 3
0 17 -10 30 -22 34 -32 98 -82 110 -87 6 -2 8 16 5 48 -3 28 -2 51 2 51 4 0
19 -12 33 -26 l25 -25 -3 55 c-2 30 -6 60 -10 65 -15 26 -2 401 15 401 4 0 15
-42 25 -92 23 -121 79 -288 97 -288 10 0 -1 109 -17 160 -15 50 -22 281 -10
343 7 34 5 37 -14 37 -13 0 -19 4 -16 10 4 6 15 8 25 5 21 -7 26 7 60 165 31
139 64 220 92 220 10 0 32 28 57 73 46 80 78 123 88 114 3 -4 0 -13 -7 -22 -7
-8 -10 -29 -8 -47 4 -21 -2 -44 -18 -72 -26 -46 -31 -86 -11 -86 26 0 47 -36
47 -78 0 -23 5 -42 10 -42 6 0 10 14 10 30 0 40 23 39 35 -2 12 -38 41 -60 54
-40 7 11 9 11 14 -1 3 -9 -4 -19 -18 -27 -33 -18 -37 -35 -15 -62 l19 -23 1
25 c0 14 7 36 15 50 8 14 14 36 15 49 0 27 60 141 85 161 21 18 28 8 15 -24
-5 -15 -10 -49 -10 -76 0 -40 3 -48 15 -44 8 4 15 1 15 -5 0 -26 22 -7 42 37
12 26 25 49 28 52 4 3 20 25 37 50 17 25 48 63 68 85 48 52 125 179 125 207
l0 21 -25 -23 c-34 -32 -42 -19 -10 18 14 16 25 32 25 35 0 2 -14 7 -32 11
-28 6 -37 2 -68 -31 -19 -21 -46 -47 -59 -58 l-24 -20 13 25 c7 14 37 51 66
82 30 31 54 61 54 67 0 6 9 11 20 11 11 0 20 6 20 14 0 7 10 20 22 28 28 19
18 48 -16 48 -18 0 -24 4 -20 15 4 8 10 15 16 15 11 0 38 25 38 35 0 11 -54
-5 -62 -18 -6 -9 -8 -8 -8 2 0 7 16 29 36 47 19 19 34 40 31 47 -2 7 -47 -30
-103 -86 -55 -53 -113 -106 -129 -116 -17 -10 -43 -33 -60 -51 -16 -17 -43
-41 -60 -52 -16 -11 36 45 117 124 147 144 223 232 213 249 -7 10 20 66 34 71
13 4 41 253 41 368 0 122 11 260 20 260 8 0 25 -147 36 -308 4 -51 12 -99 18
-105 6 -7 12 -48 13 -92 2 -78 20 -205 30 -205 3 0 18 9 34 21 l30 21 -7 -29
c-9 -38 -29 -77 -48 -92 -17 -14 -22 -41 -7 -41 5 0 14 7 21 16 8 8 30 23 49
33 20 9 48 25 62 34 26 17 27 17 31 -8 4 -20 2 -25 -9 -21 -9 4 -13 1 -10 -6
2 -7 -26 -46 -62 -86 -56 -64 -63 -75 -48 -83 9 -6 17 -19 17 -30 0 -11 5 -17
10 -14 6 4 18 1 26 -6 12 -10 12 -14 2 -21 -11 -6 -10 -10 1 -17 11 -7 11 -10
0 -15 -11 -5 -11 -7 -1 -12 17 -8 15 -30 -5 -61 -17 -25 -17 -26 3 -15 11 6
52 44 90 84 84 89 213 203 220 195 3 -3 -23 -34 -58 -69 -35 -35 -82 -90 -105
-123 -35 -53 -41 -69 -45 -132 -4 -56 -2 -73 8 -73 7 0 16 5 19 10 15 25 25 6
23 -42 -2 -41 0 -53 13 -56 11 -2 21 11 33 42 9 24 24 50 32 56 7 7 14 20 14
30 0 10 7 24 17 31 15 13 16 10 10 -33 -4 -27 -10 -69 -13 -95 l-7 -48 27 24
c30 29 31 26 10 -24 -8 -21 -13 -48 -10 -61 7 -25 20 -31 31 -14 3 6 13 10 21
10 11 0 14 -17 14 -77 1 -70 2 -76 15 -59 12 16 17 17 30 6 14 -12 18 -11 26
1 5 8 9 19 9 24 0 6 15 -19 33 -55 36 -72 119 -204 147 -235 48 -52 200 -350
219 -430 10 -41 18 -256 11 -290 -1 -5 -2 -19 -1 -30 1 -17 3 -18 11 -5 8 12
10 10 10 -8 0 -13 5 -43 11 -67 9 -34 15 -42 28 -38 9 4 18 9 21 12 3 3 20 14
38 24 36 20 52 17 33 -7 -7 -8 -11 -23 -9 -33 2 -12 13 -2 37 35 35 54 57 68
48 30 -14 -59 -64 -190 -80 -208 -17 -20 -22 -40 -11 -40 11 0 108 61 132 83
l22 20 0 -34 c0 -19 -11 -56 -23 -84 -13 -27 -26 -74 -30 -103 -6 -47 -5 -51
11 -42 9 6 44 28 77 49 45 29 64 36 78 29 13 -7 25 -3 45 12 34 27 38 15 12
-44 -29 -68 -81 -144 -146 -210 -30 -32 -54 -60 -51 -62 8 -9 94 47 155 101
35 30 68 53 73 49 12 -7 56 41 88 97 132 225 167 368 207 849 33 392 29 530
-17 675 -35 112 -44 109 -45 -13 0 -93 -4 -114 -26 -164 -35 -76 -97 -141
-160 -168 -40 -17 -70 -22 -144 -22 -91 0 -95 1 -185 47 -91 46 -123 53 -78
16 26 -21 27 -22 133 -71 52 -23 66 -34 55 -41 -20 -13 -64 -11 -149 6 -262
54 -451 292 -400 506 14 56 54 142 76 160 26 21 34 -2 34 -100 0 -103 15 -173
53 -251 23 -46 40 -70 53 -70 3 0 2 6 -4 13 -5 6 -12 28 -15 47 -3 19 -11 55
-18 80 -16 58 -13 189 7 265 23 94 83 197 166 285 84 91 147 187 183 280 15
41 35 85 43 97 24 38 52 162 59 258 6 96 -15 269 -44 355 -41 123 -185 376
-220 388 -7 2 8 -39 32 -91 25 -52 54 -130 65 -173 22 -87 26 -210 7 -263 -14
-39 -37 -53 -37 -22 0 11 -4 30 -9 43 -5 13 -24 73 -41 133 -78 271 -138 388
-293 568 -109 126 -185 192 -265 228 -36 17 -86 45 -111 62 -25 18 -55 37 -66
43 -11 6 -49 28 -85 49 -36 21 -94 54 -130 73 -153 83 -222 144 -322 287 -71
100 -92 178 -86 313 4 91 9 118 37 183 55 133 160 238 279 283 77 28 227 41
321 28 97 -14 148 -38 212 -102 113 -113 148 -283 91 -442 -11 -32 -17 -58
-12 -58 12 0 85 121 101 166 20 58 17 220 -4 261 -29 55 -146 181 -193 209
-147 86 -346 113 -539 73z m699 -320 c-8 -14 -34 -11 -34 4 0 8 3 17 7 20 9 9
34 -13 27 -24z m-1059 -80 c0 -7 -8 -15 -17 -17 -18 -3 -25 18 -11 32 10 10
28 1 28 -15z m-27 -345 c4 -44 -20 -62 -53 -40 -29 19 -31 33 -8 58 26 29 57
19 61 -18z m-293 -144 c0 -22 -29 -18 -33 3 -3 14 1 18 15 15 10 -2 18 -10 18
-18z m760 -630 c50 -33 98 -60 107 -60 9 0 32 -19 51 -42 96 -121 171 -300
197 -474 17 -109 -2 -115 -28 -9 -36 147 -134 303 -321 513 -141 159 -141 162
-6 72z m-650 -98 c0 -18 -20 -15 -23 4 -3 10 1 15 10 12 7 -3 13 -10 13 -16z
m197 -479 c25 -38 47 -95 89 -230 20 -67 21 -78 9 -133 -16 -76 -26 -68 -21
16 2 54 -3 82 -39 187 -23 67 -49 134 -56 149 -13 26 -18 48 -10 48 2 0 15
-17 28 -37z m1118 -57 c0 -44 -39 -59 -72 -29 -25 22 -24 53 2 53 11 0 19 3
19 8 -3 20 3 21 26 6 14 -9 25 -26 25 -38z m-470 -5 c0 -17 -5 -33 -11 -36
-14 -9 -18 -4 -25 33 -6 28 -4 32 15 32 17 0 21 -6 21 -29z m665 -187 c0 -22
-5 -29 -20 -29 -23 0 -32 30 -14 51 18 22 34 11 34 -22z m-617 -241 c3 -22
-22 -48 -38 -38 -14 8 -13 38 2 53 16 16 32 10 36 -15z m-366 -35 c-15 -15
-26 -4 -18 18 5 13 9 15 18 6 9 -9 9 -15 0 -24z m962 -194 c9 -22 -20 -64 -43
-64 -27 0 -56 47 -40 66 16 20 75 18 83 -2z m-1154 -24 c0 -13 -7 -20 -20 -20
-19 0 -27 20 -13 33 13 14 33 6 33 -13z m-338 -335 c16 -36 -3 -72 -50 -93
-22 -10 -47 -25 -57 -35 -28 -28 -26 -16 7 53 48 103 77 124 100 75z m288 -99
c0 -2 -7 -7 -16 -10 -8 -3 -12 -2 -9 4 6 10 25 14 25 6z m-132 -131 c-5 -25
-231 -246 -241 -236 -13 13 28 64 105 131 34 30 78 70 98 87 40 37 43 38 38
18z m-208 -68 c0 -20 -32 -47 -55 -47 -12 0 -3 35 12 52 22 25 43 23 43 -5z
m1208 -119 c-4 -29 -38 -38 -38 -10 0 22 8 32 27 32 9 0 13 -8 11 -22z m-1714
-94 c18 -7 22 -39 5 -49 -18 -12 -59 4 -59 24 0 30 19 38 54 25z m499 -46 c6
-20 -23 -58 -45 -58 -16 0 -19 5 -14 23 3 12 6 25 6 29 0 6 17 13 42 17 3 0 8
-5 11 -11z m-668 -368 c11 -35 -3 -60 -36 -60 -22 0 -32 7 -41 25 -10 22 -8
29 12 50 26 27 54 21 65 -15z m2971 -152 c4 -6 3 -13 -2 -17 -5 -3 -20 -23
-34 -44 -35 -52 -55 -45 -55 19 0 28 6 58 13 67 11 13 16 13 42 0 16 -8 33
-19 36 -25z m-3178 -116 c3 -19 -1 -23 -15 -20 -10 2 -19 14 -21 26 -3 19 1
23 15 20 10 -2 19 -14 21 -26z m2532 -12 c0 -5 -4 -10 -10 -10 -5 0 -10 5 -10
10 0 6 5 10 10 10 6 0 10 -4 10 -10z m141 -113 c-13 -13 -26 -3 -16 12 3 6 11
8 17 5 6 -4 6 -10 -1 -17z m-2871 -42 c13 -16 1 -66 -16 -72 -21 -7 -64 38
-64 66 0 15 3 30 6 34 8 8 61 -12 74 -28z m238 -78 c2 -10 -3 -17 -12 -17 -18
0 -29 16 -21 31 9 14 29 6 33 -14z m232 -53 c0 -9 -7 -14 -17 -12 -25 5 -28
28 -4 28 12 0 21 -6 21 -16z m2748 -160 c27 -19 28 -34 1 -68 -15 -19 -30 -26
-55 -26 -32 0 -34 2 -34 33 0 38 24 77 48 77 10 0 28 -7 40 -16z"/>
<path d="M7605 11440 c3 -5 8 -10 11 -10 2 0 4 5 4 10 0 6 -5 10 -11 10 -5 0
-7 -4 -4 -10z"/>
<path d="M8947 9748 c33 -34 60 -115 49 -144 -5 -14 -17 -16 -67 -11 -33 3
-66 10 -74 17 -8 6 -19 8 -26 4 -6 -4 -39 -6 -73 -6 -68 1 -74 -1 -100 -42
-16 -25 -19 -55 -22 -215 -3 -102 -9 -219 -14 -259 -6 -40 -10 -101 -11 -135
0 -34 -4 -71 -8 -82 -14 -35 -21 97 -21 390 0 234 -3 289 -16 320 -27 65 -68
89 -47 28 12 -35 5 -103 -11 -103 -6 0 -21 7 -34 15 -12 9 -30 15 -39 13 -10
-2 -17 2 -16 9 3 13 -113 29 -150 19 -13 -3 -27 -3 -30 1 -4 3 -35 7 -69 9
-37 2 -57 0 -49 -5 8 -5 11 -16 8 -25 -8 -20 -72 -21 -107 -1 -29 16 -106 20
-115 5 -8 -14 -42 -13 -47 1 -3 9 -13 8 -39 -1 -24 -9 -49 -10 -75 -5 -21 5
-42 9 -46 9 -3 1 -10 4 -13 8 -8 8 -334 0 -347 -8 -14 -9 2 -23 18 -17 12 4
15 1 12 -13 -3 -14 -11 -18 -30 -16 -15 1 -29 -2 -33 -8 -11 -18 -25 0 -25 31
0 25 -4 29 -29 29 -16 0 -31 -6 -35 -15 -3 -8 -12 -12 -21 -9 -27 11 -16 -14
15 -33 17 -9 30 -26 30 -36 0 -10 -4 -15 -10 -12 -5 3 -10 13 -10 21 0 18 -9
18 -32 -2 -16 -16 -18 -15 -25 1 -19 51 -73 67 -73 21 0 -37 -14 -48 -52 -41
-21 4 -38 3 -42 -4 -4 -5 -13 -8 -21 -4 -24 9 -17 -16 11 -42 l26 -25 -26 -10
c-14 -5 -26 -16 -26 -25 0 -19 29 -20 36 0 5 13 57 45 74 45 4 0 12 -19 19
-42 14 -48 74 -153 103 -181 15 -15 18 -27 13 -65 -4 -26 -8 -52 -10 -59 -5
-14 -40 -6 -56 13 -13 16 -29 18 -29 5 0 -5 9 -13 20 -16 26 -8 25 -21 -3 -37
-21 -12 -22 -15 -10 -38 7 -14 13 -19 13 -12 0 13 24 42 34 42 3 0 6 -7 6 -15
0 -8 -4 -15 -8 -15 -5 0 -14 -11 -20 -25 -12 -26 -30 -31 -60 -16 -50 25 -71
33 -83 29 -7 -2 9 -15 37 -27 27 -13 59 -28 72 -34 18 -9 25 -8 31 2 12 18 36
9 36 -14 0 -19 6 -23 67 -50 39 -16 59 -12 91 19 8 9 24 12 36 9 19 -5 18 -8
-17 -34 -20 -16 -51 -39 -68 -51 -18 -12 -37 -30 -43 -40 -9 -15 -8 -18 7 -18
17 0 425 240 524 308 51 35 80 43 57 15 -15 -17 -247 -208 -314 -258 -90 -66
-145 -119 -133 -127 8 -5 2 -8 -17 -9 -16 0 -24 -3 -17 -6 10 -4 8 -9 -7 -20
-22 -15 -28 -47 -11 -58 6 -3 10 -21 10 -40 0 -19 -4 -37 -10 -40 -5 -3 -10
-15 -10 -25 0 -25 -37 -50 -75 -50 -21 0 -45 14 -80 45 -27 25 -53 45 -56 45
-3 0 -20 -11 -39 -25 l-34 -25 35 0 c27 0 45 -11 94 -56 l60 -56 100 6 c55 4
147 9 205 12 117 7 438 -11 491 -27 19 -5 93 -12 164 -15 72 -3 148 -11 170
-18 23 -8 67 -11 103 -8 37 3 68 0 74 -6 21 -21 -133 -41 -472 -62 -91 -6
-195 -15 -232 -20 -37 -6 -94 -10 -127 -10 -51 0 -68 -5 -120 -37 -34 -21 -61
-44 -61 -51 0 -7 -11 -17 -25 -22 -14 -5 -25 -13 -25 -17 0 -5 77 -57 170
-117 94 -60 170 -113 170 -117 0 -15 -28 -10 -78 13 -26 11 -81 37 -122 55
-41 19 -84 38 -95 43 -104 43 -188 39 -290 -14 -34 -18 -12 -22 30 -6 17 6 33
7 43 1 15 -9 15 -10 -3 -16 -11 -4 -50 -18 -87 -31 -37 -14 -72 -23 -77 -20
-5 4 -21 -5 -35 -19 -14 -14 -30 -25 -36 -25 -6 0 -8 -4 -5 -10 3 -5 1 -10 -5
-10 -17 0 -41 -27 -38 -42 2 -7 -3 -12 -9 -10 -7 1 -13 -3 -13 -8 0 -6 -11
-21 -25 -34 -13 -13 -22 -26 -19 -29 4 -4 -1 -23 -11 -43 -13 -28 -19 -33 -26
-23 -6 10 -9 4 -9 -19 0 -20 -4 -31 -10 -27 -6 4 -10 -7 -10 -24 0 -17 -4 -31
-9 -31 -13 0 -61 -198 -61 -254 0 -34 -4 -58 -40 -231 -11 -52 -21 -155 -24
-245 -7 -173 -10 -203 -25 -243 -27 -71 -8 -74 39 -5 19 28 40 57 46 63 7 6
43 57 81 112 85 124 120 166 134 161 6 -2 -13 -35 -43 -74 -29 -39 -61 -82
-71 -95 -18 -24 -156 -217 -182 -254 -39 -56 -83 -695 -70 -1011 4 -95 10
-173 14 -172 19 2 21 -4 7 -24 -22 -31 -22 -124 0 -132 12 -4 14 -14 9 -36 -4
-19 -3 -30 4 -30 6 0 11 -7 11 -15 0 -9 11 -20 24 -25 13 -5 29 -17 35 -27 9
-16 12 -16 21 -3 15 22 12 -1 -4 -32 -16 -31 -11 -41 15 -27 21 11 72 2 63
-12 -3 -5 9 -9 26 -9 17 0 41 -7 54 -15 21 -14 25 -14 49 11 15 15 27 32 27
37 0 6 -24 34 -53 62 -29 27 -59 59 -67 69 -14 18 -14 19 7 8 12 -7 50 -37 85
-67 34 -30 65 -55 68 -55 3 0 39 34 80 75 41 41 78 75 83 75 5 0 -10 -26 -32
-58 -45 -63 -50 -86 -25 -113 15 -17 14 -18 -9 -24 -14 -4 -31 -4 -36 0 -20
12 -11 -5 20 -39 17 -19 41 -37 55 -40 14 -4 24 -14 24 -24 0 -23 40 -62 64
-62 9 0 15 -4 11 -9 -5 -9 19 -21 39 -20 5 0 15 -12 23 -28 8 -15 35 -41 61
-58 41 -26 56 -30 122 -30 55 0 87 -6 120 -21 25 -12 53 -24 63 -28 10 -3 15
-10 12 -16 -3 -5 1 -10 10 -10 9 0 13 5 10 10 -3 6 1 10 9 10 9 0 16 5 16 12
0 6 3 8 7 5 3 -4 7 -28 7 -53 l1 -47 118 -63 c134 -71 143 -78 168 -118 10
-16 33 -47 53 -70 106 -123 125 -147 132 -168 4 -13 14 -34 22 -46 22 -33 80
-168 87 -204 4 -18 16 -33 32 -39 21 -8 1531 -15 1539 -6 7 7 6 816 -1 827 -6
10 -11 9 -20 -4 -10 -13 -18 -14 -37 -7 -13 5 -129 10 -257 10 -200 2 -236 -1
-260 -15 -26 -16 -33 -16 -97 -1 -58 14 -128 16 -437 14 l-369 -2 -18 -23
c-12 -15 -21 -48 -26 -92 -3 -39 -11 -70 -15 -70 -5 0 -9 31 -9 68 0 59 -4 75
-27 110 -51 76 -124 152 -144 152 -11 0 -18 4 -15 9 13 21 -25 81 -63 101 -44
22 -49 32 -56 114 -6 85 -12 96 -47 96 -28 0 -30 2 -25 27 3 15 1 35 -4 44 -7
14 -3 18 26 21 37 4 42 -1 23 -20 -17 -17 18 -28 37 -12 19 16 19 1 0 -24 -17
-23 -20 -50 -5 -41 6 4 8 10 6 13 -2 4 7 12 20 19 28 13 28 13 9 -23 -18 -35
-12 -43 15 -19 17 16 20 16 20 2 0 -9 -5 -19 -12 -23 -8 -5 -6 -11 6 -20 11
-7 15 -18 10 -25 -5 -9 5 -11 43 -6 45 5 52 3 56 -13 3 -11 17 -25 32 -32 34
-15 59 -1 62 35 1 20 -2 25 -15 20 -9 -3 -25 -13 -34 -20 -9 -8 -22 -12 -28
-8 -13 8 36 55 85 81 17 9 39 28 51 42 14 17 27 23 37 19 27 -10 20 -33 -23
-79 -44 -47 -46 -56 -27 -82 12 -17 16 -17 44 -3 16 9 54 36 84 60 30 24 65
47 79 51 18 6 6 -11 -47 -63 -40 -38 -73 -73 -73 -76 0 -11 33 -4 61 12 39 23
48 10 13 -20 l-28 -24 26 -17 c23 -15 26 -22 21 -53 l-6 -36 34 7 c19 3 41 8
49 10 8 3 17 5 20 5 3 1 -1 5 -8 9 -18 12 0 57 33 78 17 11 25 24 23 38 -3 18
-10 21 -48 21 -42 0 -45 2 -42 25 1 14 9 31 17 39 12 12 23 7 79 -35 66 -50
81 -74 47 -74 -28 0 -52 -11 -45 -21 3 -5 16 -9 28 -9 13 0 34 -10 47 -23 13
-13 33 -27 44 -31 19 -7 19 -8 -5 -26 l-25 -19 28 -10 c16 -6 36 -11 45 -11
15 0 15 2 2 10 -9 6 -14 21 -12 40 3 21 -1 30 -12 30 -14 0 -60 49 -52 57 2 2
28 -10 57 -26 30 -17 91 -49 137 -71 45 -22 85 -47 87 -55 3 -8 8 -23 12 -32
3 -10 7 -21 7 -25 5 -39 56 21 56 66 0 29 -5 33 -88 71 -73 33 -175 86 -267
139 -46 26 -260 204 -253 211 1 1 50 -33 107 -75 66 -50 159 -106 255 -154 84
-42 154 -76 158 -76 3 0 36 -18 73 -41 90 -54 245 -115 380 -149 110 -28 273
-43 328 -31 l29 6 -54 45 c-69 58 -188 172 -297 283 -47 49 -95 94 -106 100
-12 7 -90 12 -200 13 -105 1 -168 -2 -151 -7 15 -4 96 -9 179 -10 108 -1 155
-6 164 -15 19 -18 16 -22 -14 -26 l-28 -3 21 -20 c12 -11 31 -28 42 -37 12
-10 22 -22 22 -28 0 -15 -72 -12 -120 5 -24 8 -82 24 -129 36 -177 42 -321 99
-321 126 0 8 3 12 8 10 47 -24 82 -35 100 -30 32 8 27 23 -8 23 -30 0 -36 2
-97 34 -17 9 -39 13 -50 10 -13 -4 -14 -3 -5 4 11 7 5 14 -22 32 -20 12 -42
27 -49 33 -6 7 -30 25 -52 41 -22 17 -43 34 -46 39 -4 5 -12 7 -18 3 -7 -5 -9
-1 -5 8 3 9 1 16 -5 16 -6 0 -11 -5 -11 -11 0 -5 -24 7 -52 27 -66 46 -180
172 -192 210 -11 38 -11 38 -78 126 -60 80 -80 113 -133 218 -76 151 -105 275
-105 456 0 192 21 287 98 434 24 47 47 87 51 90 3 3 18 21 33 40 43 57 70 84
126 128 56 44 89 53 98 27 17 -44 79 26 89 101 9 73 16 106 21 101 8 -8 34
-172 34 -214 l0 -43 138 6 c193 8 219 18 262 104 12 25 31 52 41 60 13 10 22
34 26 68 6 52 22 79 31 52 3 -8 20 -29 37 -47 28 -29 34 -31 45 -18 16 19 46
19 54 0 8 -21 75 -19 123 4 21 10 55 26 75 34 23 10 52 36 73 66 20 27 42 52
51 55 9 3 92 6 185 6 l170 0 13 33 c7 17 19 75 26 127 9 66 19 101 32 116 20
23 153 92 336 174 104 46 323 154 496 243 94 49 196 111 409 252 273 181 420
290 532 396 69 64 119 107 190 164 119 95 555 520 555 542 0 10 -9 13 -32 9
-18 -3 -72 -11 -120 -17 -48 -7 -85 -15 -83 -20 8 -12 -453 -169 -497 -169 -8
0 -19 -5 -26 -12 -6 -6 -33 -13 -59 -15 -25 -1 -51 -7 -57 -13 -5 -5 -26 -10
-46 -10 -20 0 -40 -4 -46 -10 -5 -5 -93 -30 -194 -56 -102 -25 -217 -57 -257
-70 -39 -13 -83 -24 -97 -24 -24 0 -51 -9 -103 -33 -12 -5 -41 -7 -64 -3 -26
4 -46 2 -55 -5 -11 -9 -15 -8 -19 5 -3 9 -7 23 -10 31 -6 21 -18 19 -49 -10
-15 -14 -39 -27 -54 -31 -46 -9 -73 -24 -67 -34 4 -6 11 -8 16 -5 5 4 9 1 9
-5 0 -6 -8 -10 -17 -8 -10 2 -37 -9 -60 -24 -40 -27 -43 -28 -62 -11 -15 13
-18 20 -9 30 14 17 3 29 -14 16 -22 -18 -119 -15 -147 4 -35 24 -52 25 -80 6
-15 -9 -26 -12 -28 -6 -2 6 -10 18 -17 28 -13 18 -14 17 -32 -3 -20 -23 -78
-47 -92 -38 -5 3 -11 75 -14 161 -3 85 -10 161 -16 167 -6 8 -8 40 -5 81 6 71
10 75 59 57 14 -6 54 -14 88 -19 33 -5 69 -12 79 -16 10 -4 17 -3 17 5 0 6 -9
14 -20 17 -50 13 -11 23 92 23 61 0 109 2 107 5 -3 2 -98 5 -211 6 -194 1
-206 2 -232 22 -24 19 -27 31 -32 97 -7 104 -11 118 -41 146 -23 21 -35 24
-109 24 -46 0 -84 -4 -84 -9 0 -15 29 -21 100 -21 59 0 68 -2 73 -20 6 -23 -2
-25 -46 -7 -41 17 -199 7 -212 -13 -2 -4 -5 -59 -6 -123 -2 -112 -9 -150 -25
-134 -4 4 -10 53 -12 110 -4 88 -8 109 -33 157 -16 30 -42 65 -59 78 -28 22
-30 22 -30 5 0 -29 -47 -68 -83 -69 -163 -9 -213 -15 -223 -30 -7 -8 -15 -77
-18 -162 -7 -148 -15 -227 -22 -219 -2 2 -10 94 -18 205 -12 167 -18 209 -35
246 -12 24 -27 49 -34 54 -30 24 -110 62 -129 62 -20 0 -20 -2 9 -32z m533
-201 c0 -20 -26 -69 -48 -93 -11 -11 -23 -30 -26 -42 -10 -30 -27 -28 -59 9
-34 39 -35 50 -3 19 35 -32 52 -21 87 55 29 61 49 82 49 52z m-190 -59 c0 -17
-17 -7 -39 23 l-23 31 31 -23 c17 -12 31 -26 31 -31z m669 -348 c1 -141 -12
-190 -22 -83 -9 89 -9 165 0 244 l7 64 7 -50 c4 -27 8 -106 8 -175z m-307
-190 l-7 -185 -7 140 c-3 77 -3 203 0 280 l7 140 7 -95 c4 -52 4 -178 0 -280z
m82 275 c9 -35 35 -46 74 -30 22 10 32 21 33 37 1 16 3 18 6 6 5 -20 -22 -65
-48 -79 -34 -18 -122 51 -104 81 11 18 33 10 39 -15z m-797 -82 c5 -15 -138
-104 -162 -101 -11 2 -21 11 -23 21 -3 14 4 17 35 17 45 1 74 15 103 53 22 27
40 31 47 10z m523 -226 c0 -15 -38 -63 -44 -56 -2 2 3 19 10 37 14 32 34 44
34 19z m-1151 -33 c-6 -8 -15 -14 -20 -14 -14 0 -11 28 4 33 20 7 29 -4 16
-19z m-862 0 c-3 -3 -12 -4 -19 -1 -8 3 -5 6 6 6 11 1 17 -2 13 -5z m1928 -69
c-27 -22 -55 -32 -55 -21 0 2 -3 12 -7 21 -5 15 -1 16 23 11 16 -3 36 -2 44 4
28 18 25 10 -5 -15z m-617 -23 c19 -2 32 0 32 7 0 6 8 11 18 11 13 0 11 -6
-12 -25 -34 -29 -38 -30 -76 -10 -32 17 -43 43 -12 30 9 -5 32 -10 50 -13z
m92 14 c0 -3 -4 -8 -10 -11 -5 -3 -10 -1 -10 4 0 6 5 11 10 11 6 0 10 -2 10
-4z m-40 -51 c-7 -9 -15 -13 -17 -11 -7 7 7 26 19 26 6 0 6 -6 -2 -15z m-32
-45 c-7 -11 -20 -20 -28 -20 -10 0 -7 7 10 20 31 25 33 25 18 0z m-1044 -27
c-129 -116 -186 -152 -188 -118 -1 11 179 135 197 135 6 0 2 -8 -9 -17z m947
-15 c37 -54 92 -108 110 -108 10 0 26 11 37 25 69 87 112 121 81 63 -17 -31
-108 -118 -124 -118 -7 0 -28 19 -47 43 -18 23 -48 57 -65 75 -18 18 -33 37
-33 42 0 20 19 9 41 -22z m-61 -398 c0 -11 -4 -20 -9 -20 -14 0 -23 18 -16 30
10 17 25 11 25 -10z m-680 -280 c0 -5 -2 -10 -4 -10 -3 0 -8 5 -11 10 -3 6 -1
10 4 10 6 0 11 -4 11 -10z m-510 -160 c0 -12 -10 -25 -22 -30 -13 -5 -34 -19
-48 -31 l-25 -21 31 -26 c17 -15 75 -64 130 -108 55 -45 137 -116 183 -158 47
-42 88 -76 92 -76 4 0 9 -7 13 -15 9 -24 -16 -18 -80 21 -56 35 -137 82 -234
136 -170 96 -232 134 -238 150 -2 4 -10 8 -18 8 -8 0 -14 4 -14 9 0 5 -9 13
-21 16 -32 10 -22 64 16 86 17 10 39 18 51 18 11 1 24 4 28 8 14 15 72 31 114
32 36 1 42 -2 42 -19z m1100 -215 c7 -9 11 -18 8 -20 -8 -9 -36 5 -42 21 -7
19 18 18 34 -1z m-120 -5 c0 -5 -9 -10 -20 -10 -12 0 -25 -10 -32 -25 -7 -15
-20 -25 -32 -25 -12 0 -26 -9 -31 -22 -12 -26 -25 -31 -44 -19 -12 8 -12 12
-2 25 8 9 22 16 32 16 11 0 19 4 19 10 0 13 71 59 93 59 9 1 17 -3 17 -9z m70
0 c0 -5 -4 -10 -10 -10 -5 0 -10 5 -10 10 0 6 5 10 10 10 6 0 10 -4 10 -10z
m-275 -135 c-16 -13 -33 -24 -38 -25 -4 0 -23 -14 -42 -31 -19 -17 -45 -37
-59 -44 -27 -14 -218 -158 -275 -207 -27 -23 -82 -48 -108 -48 -10 0 2 13 30
33 27 17 76 53 110 80 165 126 373 266 397 266 9 1 3 -9 -15 -24z m14 -38 c-2
-2 -25 -18 -51 -35 -49 -33 -69 -41 -46 -19 20 20 92 65 97 61 2 -2 2 -6 0 -7z
m-838 -100 c-17 -17 -22 -2 -9 29 11 28 12 29 16 5 2 -13 -1 -28 -7 -34z m-67
-73 c3 -9 2 -22 -2 -31 -8 -13 -11 -13 -25 2 -10 9 -17 23 -17 31 0 19 36 18
44 -2z m-54 -24 c0 -5 -7 -10 -15 -10 -8 0 -15 5 -15 10 0 6 7 10 15 10 8 0
15 -4 15 -10z m-264 -27 c-10 -10 -19 5 -10 18 6 11 8 11 12 0 2 -7 1 -15 -2
-18z m137 -24 c-10 -17 -26 -37 -35 -46 -15 -13 -19 -13 -42 4 -32 23 -33 37
-2 29 18 -4 33 1 53 19 38 33 48 31 26 -6z m2189 -2 c-12 -6 -25 -7 -29 -3
-11 10 18 25 35 18 13 -4 11 -8 -6 -15z m-2054 -187 c28 -14 54 -31 57 -38 2
-7 1 -11 -3 -9 -98 47 -162 92 -162 115 0 5 13 -2 29 -16 15 -15 51 -38 79
-52z m306 -215 c-4 -8 -11 -15 -16 -15 -6 0 -5 6 2 15 7 8 14 15 16 15 2 0 1
-7 -2 -15z m-44 -760 c0 -8 -4 -15 -10 -15 -5 0 -10 7 -10 15 0 8 5 15 10 15
6 0 10 -7 10 -15z m-398 -247 c-6 -6 -15 -8 -19 -4 -4 4 -1 11 7 16 19 12 27
3 12 -12z m-92 -223 c0 -21 -5 -19 -25 11 -16 25 -16 25 4 14 12 -6 21 -17 21
-25z m674 -79 c25 -49 55 -95 66 -103 11 -8 20 -21 20 -29 0 -8 8 -14 18 -14
27 0 45 -43 30 -75 -6 -14 -14 -25 -18 -25 -17 0 -190 317 -190 349 0 27 25
-7 74 -103z m543 -63 c10 -15 35 -43 56 -62 21 -18 52 -52 69 -74 l32 -40 -29
18 c-17 10 -34 24 -40 30 -5 7 -28 33 -49 58 -43 52 -51 55 -78 30 -25 -22
-29 -15 -15 30 14 44 30 47 54 10z m-173 -45 c-16 -13 -30 -26 -32 -30 -2 -5
-9 -8 -15 -8 -14 1 53 60 66 60 6 0 -3 -10 -19 -22z m87 -45 c-47 -64 -60 -77
-67 -70 -4 4 12 28 36 52 51 52 60 57 31 18z m-225 -120 c-10 -10 -19 5 -10
18 6 11 8 11 12 0 2 -7 1 -15 -2 -18z m494 17 c0 -5 -2 -10 -4 -10 -3 0 -8 5
-11 10 -3 6 -1 10 4 10 6 0 11 -4 11 -10z m-382 -42 c2 -11 -5 -21 -20 -27
-13 -5 -30 -16 -37 -25 -15 -18 -51 -22 -51 -6 0 6 15 26 33 45 34 36 69 42
75 13z m-164 -19 c-8 -14 -24 -10 -24 6 0 9 6 12 15 9 8 -4 12 -10 9 -15z
m636 -14 c7 -8 9 -15 6 -15 -4 0 -14 7 -22 15 -9 8 -11 15 -6 15 5 0 15 -7 22
-15z m-569 -108 c-16 -16 -26 0 -10 19 9 11 15 12 17 4 2 -6 -1 -17 -7 -23z
m240 -30 c-10 -9 -11 -8 -5 6 3 10 9 15 12 12 3 -3 0 -11 -7 -18z m-1313 -47
c7 -11 18 -20 26 -20 22 0 41 -29 28 -42 -13 -13 -72 32 -84 63 -10 26 14 25
30 -1z m1162 -40 c-7 -5 -19 -6 -27 -3 -10 4 -8 9 9 17 24 13 40 0 18 -14z"/>
<path d="M9600 9650 c11 -21 61 -26 110 -10 20 6 13 8 -30 10 -41 1 -50 4 -35
10 16 7 12 9 -18 9 -35 1 -37 -1 -27 -19z"/>
<path d="M2790 9649 c0 -5 12 -9 28 -9 15 0 41 -7 57 -16 28 -14 29 -14 13 2
-18 18 -98 37 -98 23z"/>
<path d="M1437 9634 c-3 -3 -1 -14 6 -25 6 -10 9 -20 6 -23 -10 -10 -124 -9
-164 1 -22 6 -95 10 -162 9 -108 -1 -124 -3 -136 -20 -13 -18 -15 -18 -24 -2
-7 13 -28 18 -94 22 -46 2 -109 9 -139 15 -30 6 -109 13 -175 15 l-120 5 55
-56 c30 -32 100 -93 155 -138 55 -44 102 -83 105 -86 14 -17 191 -171 230
-201 25 -19 67 -54 94 -78 28 -24 67 -52 87 -62 20 -11 39 -29 43 -42 4 -16
39 -42 114 -85 60 -35 142 -91 183 -125 132 -112 242 -188 479 -333 52 -32
172 -108 265 -170 94 -62 217 -137 275 -167 58 -30 139 -75 180 -99 41 -24 89
-51 105 -59 17 -8 48 -26 70 -41 22 -14 94 -54 160 -89 140 -74 118 -63 270
-135 66 -31 188 -90 270 -130 158 -77 219 -105 230 -105 3 0 36 -14 73 -31 37
-17 76 -35 87 -40 113 -49 138 -58 145 -54 4 3 10 -2 14 -10 3 -8 17 -15 31
-15 14 0 25 -4 25 -10 0 -5 9 -10 20 -10 11 0 20 -4 20 -10 0 -5 11 -10 25
-10 14 0 25 -3 25 -8 0 -7 38 -28 90 -49 14 -6 77 -36 140 -67 63 -31 121 -56
128 -56 6 0 12 -4 12 -10 0 -5 7 -10 15 -10 8 0 15 -4 15 -10 0 -5 5 -10 11
-10 17 0 171 -133 222 -193 120 -141 172 -285 183 -512 6 -125 2 -166 -28
-290 -5 -22 -10 -63 -11 -92 -2 -34 -10 -62 -23 -80 -11 -15 -27 -43 -35 -60
-7 -18 -17 -33 -21 -33 -5 0 -8 -7 -8 -15 0 -8 -7 -15 -15 -15 -8 0 -15 -9
-15 -19 0 -11 -3 -21 -7 -23 -7 -3 -89 -110 -148 -192 -11 -16 -26 -34 -32
-41 -7 -8 -13 -19 -13 -25 0 -6 -5 -8 -11 -5 -6 4 -9 0 -7 -11 2 -11 -2 -18
-9 -17 -7 2 -12 -3 -10 -10 1 -6 -4 -11 -10 -10 -7 2 -13 -4 -13 -12 0 -9 -6
-12 -15 -9 -11 5 -13 2 -8 -12 4 -12 3 -15 -6 -10 -14 9 -74 -42 -65 -56 3 -4
0 -8 -5 -8 -6 0 -11 -6 -11 -13 0 -14 -74 -88 -162 -161 -32 -27 -67 -63 -79
-82 -13 -22 -29 -34 -42 -34 -12 0 -47 -16 -77 -35 -30 -19 -62 -35 -72 -35
-19 0 -46 -45 -35 -57 4 -3 18 4 32 17 28 26 137 82 145 74 3 -3 -4 -13 -16
-23 -22 -17 -41 -81 -24 -81 5 0 7 -6 4 -14 -5 -13 -54 -30 -81 -29 -7 0 -11
-3 -8 -7 3 -4 -9 -10 -25 -12 -17 -3 -30 -1 -30 4 0 14 -41 -26 -56 -54 -8
-15 -14 -29 -14 -33 0 -11 28 -4 41 11 17 21 149 87 149 75 0 -6 -8 -16 -18
-23 -25 -17 -36 -74 -17 -82 23 -8 6 -38 -17 -30 -10 3 -29 -1 -41 -9 -26 -17
-87 -27 -87 -15 0 5 -12 -2 -27 -16 -15 -14 -25 -28 -22 -30 3 -3 42 7 87 23
95 32 126 26 59 -13 -55 -33 -250 -76 -340 -76 -35 0 -84 6 -108 13 -48 15
-128 15 -150 1 -17 -10 -108 -14 -114 -4 -2 4 -28 3 -57 0 -59 -8 -85 -4 -110
17 -14 13 -17 12 -24 -9 -4 -13 -8 -202 -8 -421 l-1 -397 761 0 762 0 40 63
c23 34 71 100 107 147 36 47 83 110 104 140 44 63 96 119 161 173 47 39 15 25
-47 -21 -54 -40 -38 -10 27 52 64 60 120 98 235 161 39 21 75 44 80 50 6 7 23
16 39 19 21 5 26 10 17 16 -8 4 -10 13 -7 19 4 6 -3 20 -16 31 -20 18 -21 19
-3 13 11 -3 22 -9 25 -12 27 -31 85 -32 85 -1 0 18 43 26 58 11 7 -7 19 -2 39
19 15 17 35 30 43 30 21 0 19 8 -12 36 -22 19 -24 23 -8 18 11 -4 27 -12 35
-19 21 -16 72 -37 77 -31 6 6 -13 40 -33 61 -23 22 -10 30 18 11 12 -9 32 -16
44 -16 18 0 20 5 16 26 -5 25 -3 26 22 20 18 -4 25 -3 21 4 -8 12 -8 12 33 1
30 -9 32 -8 26 14 -9 34 11 38 46 9 34 -29 54 -26 27 4 -10 10 -17 22 -17 25
0 14 23 6 41 -15 11 -11 22 -19 25 -15 3 3 -4 16 -15 28 -22 24 -23 44 -2 44
6 0 16 6 21 14 7 12 11 12 24 2 8 -7 20 -10 25 -7 5 4 12 2 16 -4 9 -15 25
-12 25 6 0 11 6 14 20 9 26 -8 26 9 -1 47 -21 28 -21 30 -3 25 60 -18 138 -26
150 -16 9 7 19 7 34 -1 11 -6 24 -8 29 -5 11 6 2 45 -11 45 -5 0 -8 10 -7 23
2 12 0 28 -4 35 -11 16 5 15 29 -3 31 -24 46 -19 32 10 -8 19 -8 28 2 40 8 10
9 15 1 15 -6 0 -11 5 -11 12 0 9 3 9 12 0 7 -7 19 -12 29 -12 14 0 16 16 17
138 1 114 -3 146 -19 192 -11 30 -23 66 -26 80 -5 22 -3 21 18 -9 22 -32 49
-43 40 -17 -4 12 -15 231 -29 552 -5 105 -11 195 -14 200 -4 5 -9 48 -12 96
-10 129 -24 165 -103 261 -52 63 -56 69 -82 105 -34 49 -19 50 20 1 19 -23 52
-63 74 -88 22 -26 48 -58 58 -71 18 -24 18 -23 12 90 -10 212 -29 382 -55 490
-5 19 -14 73 -20 120 -7 47 -21 126 -32 175 -10 50 -22 105 -25 123 -3 18 -10
35 -14 38 -5 3 -9 16 -9 30 0 13 -4 24 -10 24 -5 0 -10 7 -10 16 0 20 -77 128
-126 177 -28 28 -40 34 -44 24 -4 -12 -24 -5 -97 29 -50 24 -94 48 -98 54 -11
17 58 11 98 -9 20 -10 37 -16 37 -12 0 4 -12 14 -27 22 -16 8 -30 16 -33 20
-3 3 -23 14 -45 25 -31 15 -59 19 -125 18 -95 -2 -151 -18 -359 -103 -69 -28
-128 -48 -133 -43 -4 4 43 41 105 82 61 41 118 81 125 88 21 19 95 68 117 76
20 8 20 8 0 19 -25 15 -105 96 -105 106 0 10 -84 19 -270 31 -74 4 -160 14
-190 22 -48 12 -55 17 -55 38 0 23 5 26 75 36 41 7 179 16 305 22 127 6 243
15 259 22 20 7 32 8 40 0 6 -6 64 -10 146 -9 74 1 124 4 110 8 -24 7 -37 38
-14 34 7 -1 11 9 10 22 -1 27 -6 31 -23 14 -12 -12 -94 -19 -87 -7 6 10 -33
86 -63 123 -28 32 -28 31 33 73 15 10 16 14 6 18 -8 4 -59 42 -115 85 -56 43
-160 123 -232 178 -213 162 -269 224 -119 130 105 -66 146 -90 314 -186 140
-80 206 -113 227 -113 11 0 -3 15 -35 37 -29 21 -48 39 -41 42 7 2 15 -1 17
-7 5 -17 22 -15 69 8 30 14 44 29 53 54 12 38 44 71 59 61 19 -11 81 7 92 28
10 18 9 19 -12 13 -13 -4 -33 -10 -44 -12 -20 -5 -20 -5 -1 10 10 8 22 13 26
11 4 -3 14 3 23 13 12 13 14 27 7 61 -7 37 -4 51 21 99 17 30 45 73 64 94 32
35 51 68 23 40 -10 -10 -36 -4 -56 13 -2 2 4 15 13 29 17 25 17 26 -4 26 -25
0 -27 12 -6 30 8 7 15 18 15 25 0 31 -66 27 -136 -7 -55 -26 -95 -20 -44 6 48
26 160 109 160 120 0 4 -10 5 -22 1 -63 -19 -70 -18 -94 11 -22 27 -25 28 -38
11 -7 -10 -22 -19 -32 -21 -11 -3 -31 -9 -47 -15 -21 -8 -37 -7 -70 5 -23 9
-54 17 -69 19 -15 1 -33 7 -41 13 -7 6 -24 8 -37 5 -16 -4 -21 -3 -16 5 9 14
3 15 -99 18 -44 1 -154 5 -245 9 -91 3 -174 6 -185 5 -11 0 -206 0 -433 0
l-413 0 31 -45 c16 -24 35 -47 40 -50 5 -3 15 -16 22 -28 11 -21 10 -21 -8 -7
-39 30 -119 95 -132 107 -25 24 -81 44 -114 41 -33 -3 -33 -3 -31 -53 2 -48 1
-49 -13 -28 -52 73 -28 68 -312 71 -304 4 -292 4 -547 0 -110 -1 -213 1 -228
5 -24 7 -30 4 -34 -13 -6 -24 -40 -27 -69 -6 -16 12 -58 14 -236 10 -231 -5
-265 0 -255 37 3 12 0 19 -9 19 -8 0 -14 -10 -14 -25 0 -24 -2 -25 -77 -26
-247 -1 -485 1 -493 6 -4 3 -38 1 -73 -4 -78 -11 -137 0 -156 28 -12 18 -24
21 -96 21 -45 0 -84 -3 -88 -6z m3913 -187 c11 -24 29 -56 40 -70 31 -39 16
-33 -26 10 -46 47 -69 103 -43 103 5 0 19 -19 29 -43z m515 -147 c0 -31 -3
-35 -28 -38 -21 -3 -29 2 -36 20 -13 34 4 60 37 56 24 -3 27 -7 27 -38z m-375
5 c0 -13 -4 -14 -20 -5 -11 6 -20 13 -20 15 0 3 9 5 20 5 11 0 20 -7 20 -15z
m-3206 -158 c39 -62 77 -123 83 -137 12 -29 40 -40 168 -70 105 -24 175 -43
315 -87 184 -57 213 -70 261 -120 24 -25 59 -52 77 -59 42 -18 41 -34 -2 -34
-29 0 -42 9 -83 53 -58 65 -112 92 -273 137 -25 7 -54 16 -65 20 -23 9 -180
56 -240 71 -22 6 -54 15 -71 20 -17 5 -46 9 -66 9 -42 0 -47 6 -78 84 -13 32
-45 91 -71 131 -26 40 -52 82 -59 94 -11 21 -10 22 10 11 12 -6 54 -62 94
-123z m3581 33 c3 -5 1 -10 -4 -10 -6 0 -11 5 -11 10 0 6 2 10 4 10 3 0 8 -4
11 -10z m15 -107 c0 -17 -27 -17 -33 0 -2 6 -2 21 1 31 5 18 6 18 19 1 7 -11
13 -25 13 -32z m-13 -95 c-1 -25 -7 -43 -16 -46 -10 -3 -12 0 -8 12 4 10 7 31
7 47 0 16 4 29 9 29 5 0 9 -19 8 -42z m-1752 -223 c17 -21 35 -43 40 -49 18
-19 55 -74 55 -82 0 -21 -104 108 -169 210 -17 27 35 -28 74 -79z m352 -239
l112 -110 26 24 c14 13 27 21 31 18 6 -7 -57 -68 -70 -68 -13 0 -396 386 -396
400 0 14 143 -113 297 -264z m-524 149 c47 -43 58 -73 29 -83 -11 -3 -20 4
-76 72 -21 26 -25 56 -7 56 3 0 28 -20 54 -45z m-600 -49 c86 -52 297 -235
297 -258 0 -27 -49 5 -145 93 -125 114 -209 173 -236 166 -14 -4 -19 0 -19 14
0 29 38 24 103 -15z m2264 -68 c17 -18 33 -43 35 -54 5 -18 2 -21 -16 -16 -33
8 -96 63 -96 84 0 30 42 22 77 -14z m-1830 -37 c45 -29 51 -36 42 -52 -16 -31
-20 -28 -103 80 -14 19 -3 13 61 -28z m1188 -116 c31 -46 34 -57 16 -63 -8 -3
-25 27 -59 101 -2 4 0 7 5 7 4 0 22 -21 38 -45z m743 28 c2 -8 -5 -13 -17 -13
-12 0 -21 6 -21 16 0 18 31 15 38 -3z m-92 -28 c4 -8 14 -15 24 -15 11 0 22
-5 25 -10 4 -6 -9 -9 -36 -6 -39 3 -63 21 -53 38 9 13 34 9 40 -7z m135 -6
c11 -5 38 -11 60 -11 21 0 39 -5 39 -10 0 -5 -28 -8 -62 -6 -50 2 -63 6 -66
21 -4 20 2 21 29 6z m-1834 -75 c-10 -10 -37 16 -37 34 0 13 4 12 22 -5 12
-13 19 -25 15 -29z m462 -279 c22 -24 41 -50 40 -57 0 -10 -2 -10 -6 0 -2 6
-23 15 -45 18 -22 4 -41 12 -43 18 -24 80 -7 87 54 21z m-226 -89 c37 -32 67
-62 67 -67 0 -20 -30 -7 -52 22 -30 40 -89 99 -98 99 -4 0 -11 8 -14 17 -8 19
-13 23 97 -71z m367 -56 c-32 -24 -42 -14 -11 11 13 11 27 17 30 14 3 -4 -5
-15 -19 -25z m1292 -46 c75 -28 92 -35 138 -58 25 -13 46 -30 48 -39 6 -31
-65 -88 -249 -199 -101 -61 -201 -119 -222 -130 -21 -11 -62 -34 -90 -51 -60
-38 -102 -57 -122 -57 -28 0 -15 17 38 52 28 19 108 86 177 148 69 62 155 135
193 162 96 71 108 103 46 128 -27 12 -38 38 -22 53 9 10 18 9 65 -9z m-982
-314 c0 -5 -4 -10 -10 -10 -5 0 -10 5 -10 10 0 6 5 10 10 10 6 0 10 -4 10 -10z
m-1120 -24 c0 -3 -4 -8 -10 -11 -5 -3 -10 -1 -10 4 0 6 5 11 10 11 6 0 10 -2
10 -4z m1481 -185 c22 -18 38 -36 35 -39 -5 -4 -21 5 -106 61 -14 10 -49 33
-77 52 -29 19 -53 37 -53 41 0 11 162 -81 201 -115z m79 -61 c0 -5 -4 -10 -9
-10 -6 0 -13 5 -16 10 -3 6 1 10 9 10 9 0 16 -4 16 -10z m101 -92 c9 -17 8
-18 -9 -9 -11 6 -22 17 -25 25 -9 22 21 8 34 -16z m433 -20 c-13 -24 -37 -48
-47 -48 -6 0 2 14 18 30 31 32 41 38 29 18z m-373 -40 l23 -33 -27 24 c-15 14
-27 28 -27 33 0 15 8 8 31 -24z m292 -25 c-7 -2 -21 -2 -30 0 -10 3 -4 5 12 5
17 0 24 -2 18 -5z m-233 -45 c0 -6 -7 -5 -15 2 -8 7 -15 17 -15 22 0 6 7 5 15
-2 8 -7 15 -17 15 -22z m260 -589 c0 -5 -4 -9 -10 -9 -5 0 -10 7 -10 16 0 8 5
12 10 9 6 -3 10 -10 10 -16z m-140 -703 c0 -8 -4 -18 -10 -21 -5 -3 -10 -4
-10 -1 0 2 -3 11 -6 20 -4 11 -1 16 10 16 9 0 16 -6 16 -14z m666 -91 c-11 -8
-29 -14 -40 -14 -20 1 -21 1 -1 6 11 3 24 9 30 14 5 5 14 9 20 9 5 0 1 -7 -9
-15z m-327 -55 c20 -9 26 -30 9 -30 -8 0 -27 14 -44 31 -28 30 -28 31 -4 19
14 -7 31 -16 39 -20z m238 24 c-3 -3 -12 -4 -19 -1 -8 3 -5 6 6 6 11 1 17 -2
13 -5z m-707 -133 c0 -10 -8 -29 -18 -42 -10 -13 -29 -49 -42 -79 -13 -30 -34
-67 -47 -81 -13 -14 -21 -28 -18 -31 3 -2 -4 -13 -15 -23 -20 -18 -21 -18 -45
5 l-24 23 29 43 c17 23 46 56 66 72 31 26 34 32 23 50 -18 29 21 82 62 82 22
0 29 -5 29 -19z m-416 -55 c-18 -10 -123 -116 -174 -176 -148 -173 -195 -221
-241 -245 -28 -14 -53 -24 -55 -22 -10 10 10 37 44 60 20 13 60 46 87 73 66
64 284 298 302 324 12 17 18 18 35 9 21 -11 21 -12 2 -23z m1112 -135 c-17
-19 -64 -33 -78 -25 -13 8 4 35 18 30 8 -3 24 -1 36 4 36 14 42 12 24 -9z
m-916 -96 c-17 -20 -3 -38 20 -25 22 12 40 13 25 2 -15 -10 -85 -147 -85 -165
0 -18 -24 -29 -46 -20 -10 4 -14 13 -10 29 4 16 0 27 -12 36 -11 7 -19 22 -19
32 0 17 2 17 20 -5 13 -15 18 -18 14 -7 -4 12 12 44 46 95 36 54 53 72 55 60
2 -10 -2 -24 -8 -32z m-350 -135 c0 -5 -2 -10 -4 -10 -3 0 -8 5 -11 10 -3 6
-1 10 4 10 6 0 11 -4 11 -10z m-114 -37 c-7 -7 -26 7 -26 19 0 6 6 6 15 -2 9
-7 13 -15 11 -17z m1344 17 c11 -7 7 -10 -17 -10 -18 0 -33 5 -33 10 0 13 30
13 50 0z m-1190 -41 c7 -11 9 -23 7 -26 -8 -8 -44 15 -51 32 -9 24 31 19 44
-6z m-90 -9 c9 0 30 -15 48 -33 31 -31 31 -33 12 -45 -11 -7 -20 -8 -20 -3 0
5 5 11 11 13 7 2 0 12 -15 22 -21 13 -31 15 -41 6 -15 -12 -31 3 -20 19 3 5 1
12 -5 16 -5 3 -10 11 -10 18 0 8 3 8 12 -1 7 -7 19 -12 28 -12z m-286 -35 c-4
-8 -11 -15 -16 -15 -6 0 -5 6 2 15 7 8 14 15 16 15 2 0 1 -7 -2 -15z m449 -34
c8 -31 5 -37 -29 -72 -28 -29 -46 -39 -69 -39 -17 0 -36 -5 -42 -11 -12 -12
-33 -4 -33 13 0 5 7 8 15 4 22 -8 18 8 -7 31 -26 23 -65 38 -90 34 -12 -1 -16
3 -12 13 10 26 36 27 73 2 40 -28 125 -48 104 -25 -19 20 -16 27 15 31 21 2
28 9 30 31 5 39 33 31 45 -12z m-529 -62 c-9 -10 -26 -19 -38 -19 -17 0 -16 4
15 36 26 27 35 32 37 19 2 -9 -4 -25 -14 -36z m587 14 c-8 -15 -10 -15 -11 -2
0 17 10 32 18 25 2 -3 -1 -13 -7 -23z m-811 -23 c0 -5 -4 -10 -10 -10 -5 0
-10 5 -10 10 0 6 5 10 10 10 6 0 10 -4 10 -10z m178 -52 c-28 -36 -191 -151
-229 -163 l-24 -7 25 18 c14 10 56 47 95 82 97 89 182 134 133 70z m392 -28
c0 -16 -26 -11 -54 11 -39 31 -31 42 14 19 22 -11 40 -25 40 -30z m-125 -42
c25 -11 34 -28 14 -28 -17 0 -49 20 -49 30 0 13 4 12 35 -2z m-505 -32 c0 -3
-4 -8 -10 -11 -5 -3 -10 -1 -10 4 0 6 5 11 10 11 6 0 10 -2 10 -4z m253 -53
c9 -3 17 0 17 6 0 13 46 15 54 2 20 -32 -91 -53 -126 -23 -22 19 -12 36 16 27
11 -3 29 -9 39 -12z m167 7 c0 -5 -4 -10 -10 -10 -5 0 -10 5 -10 10 0 6 5 10
10 10 6 0 10 -4 10 -10z m80 -61 c0 -10 -5 -19 -10 -19 -23 0 -20 -29 5 -54
23 -23 29 -25 43 -14 14 11 14 8 -2 -16 -10 -15 -16 -37 -13 -47 8 -29 -16
-23 -41 11 -18 24 -30 30 -61 30 -21 0 -59 3 -84 6 -41 6 -45 9 -44 33 2 32
15 42 44 34 17 -4 23 -1 23 10 0 21 31 30 75 21 31 -6 37 -4 42 15 6 25 23 18
23 -10z m977 25 c-3 -3 -12 -4 -19 -1 -8 3 -5 6 6 6 11 1 17 -2 13 -5z m-1280
-20 c-3 -3 -12 -4 -19 -1 -8 3 -5 6 6 6 11 1 17 -2 13 -5z m-49 -22 c3 -9 -2
-13 -14 -10 -9 1 -19 9 -22 16 -3 9 2 13 14 10 9 -1 19 -9 22 -16z m1072 -36
c0 -30 -15 -42 -24 -20 -10 27 -7 44 9 44 9 0 15 -9 15 -24z"/>
<path d="M10915 9380 l-100 -6 111 -2 c70 -1 114 -6 122 -14 10 -9 16 -8 29 5
16 16 16 17 -2 17 -11 0 -29 2 -40 3 -11 2 -65 1 -120 -3z"/>
<path d="M11230 9381 c-23 -7 -22 -8 13 -12 39 -5 59 4 31 15 -9 3 -16 6 -17
5 -1 -1 -13 -4 -27 -8z"/>
<path d="M11762 9383 c-6 -2 -10 -8 -7 -13 6 -10 45 -1 45 11 0 10 -17 11 -38
2z"/>
<path d="M11855 9380 c3 -5 11 -10 16 -10 6 0 7 5 4 10 -3 6 -11 10 -16 10 -6
0 -7 -4 -4 -10z"/>
<path d="M11982 9381 c-19 -12 44 -19 151 -17 48 1 92 7 98 13 13 13 -229 17
-249 4z"/>
<path d="M10492 9374 c4 -3 38 -5 78 -5 53 0 72 -4 77 -14 6 -18 23 -10 23 11
0 11 -19 14 -92 14 -50 0 -89 -3 -86 -6z"/>
<path d="M10720 9376 c0 -9 50 -12 62 -5 8 6 -1 9 -24 9 -21 0 -38 -2 -38 -4z"/>
<path d="M11123 9373 c9 -2 25 -2 35 0 9 3 1 5 -18 5 -19 0 -27 -2 -17 -5z"/>
<path d="M11458 9373 c7 -3 16 -2 19 1 4 3 -2 6 -13 5 -11 0 -14 -3 -6 -6z"/>
<path d="M11605 9370 c3 -5 10 -10 16 -10 5 0 9 5 9 10 0 6 -7 10 -16 10 -8 0
-12 -4 -9 -10z"/>
<path d="M11913 9363 c16 -16 18 -16 34 0 16 16 15 17 -17 17 -32 0 -33 -1
-17 -17z"/>
<path d="M10698 9333 c7 -3 16 -2 19 1 4 3 -2 6 -13 5 -11 0 -14 -3 -6 -6z"/>
<path d="M7090 9140 c22 -22 45 -26 55 -10 3 6 -3 10 -14 10 -11 0 -23 5 -26
10 -3 6 -13 10 -21 10 -10 0 -9 -5 6 -20z"/>
<path d="M11280 9139 c0 -5 5 -7 10 -4 6 3 10 8 10 11 0 2 -4 4 -10 4 -5 0
-10 -5 -10 -11z"/>
<path d="M10928 9015 c-3 -3 -27 -7 -54 -9 -28 -1 -50 -8 -52 -15 -3 -9 4 -12
24 -8 16 3 50 9 77 12 26 3 47 10 47 16 0 10 -33 13 -42 4z"/>
<path d="M10528 8909 c-30 -22 -36 -39 -15 -39 12 1 67 45 67 55 0 11 -26 3
-52 -16z"/>
<path d="M6840 8771 c0 -5 5 -13 10 -16 6 -3 10 -2 10 4 0 5 -4 13 -10 16 -5
3 -10 2 -10 -4z"/>
<path d="M6375 8653 c-27 -29 -59 -57 -70 -63 -12 -6 -27 -21 -35 -33 -12 -21
-12 -21 6 -7 10 8 24 20 30 25 6 6 29 25 52 43 37 30 79 81 70 86 -2 0 -25
-22 -53 -51z"/>
<path d="M6719 8693 c16 -29 149 -153 163 -153 7 0 -27 39 -77 85 -49 47 -91
85 -92 85 -2 0 1 -8 6 -17z"/>
<path d="M6216 8515 c-11 -8 -17 -17 -14 -20 3 -3 16 3 29 14 27 23 14 28 -15
6z"/>
<path d="M6905 8510 c10 -11 20 -18 23 -16 5 6 -23 36 -34 36 -4 0 1 -9 11
-20z"/>
<path d="M6060 8505 c0 -10 7 -15 18 -13 21 4 19 22 -2 26 -10 2 -16 -3 -16
-13z"/>
<path d="M6944 8452 c2 -19 10 -28 26 -30 37 -6 40 12 5 35 l-33 21 2 -26z"/>
<path d="M6018 8453 c-30 -36 -32 -46 -7 -38 24 7 49 31 49 47 0 14 -27 8 -42
-9z"/>
<path d="M7096 8169 c-19 -18 -75 -60 -124 -93 -151 -104 -241 -171 -241 -179
-2 -21 267 160 359 242 30 27 52 52 49 55 -4 4 -23 -8 -43 -25z"/>
<path d="M6041 8166 c24 -22 62 -46 73 -46 3 0 -11 16 -33 35 -21 19 -45 35
-52 35 -8 0 -4 -9 12 -24z"/>
<path d="M6164 8170 c50 -25 55 -25 26 0 -13 11 -32 20 -44 20 -15 -1 -11 -6
18 -20z"/>
<path d="M7168 7893 c7 -3 16 -2 19 1 4 3 -2 6 -13 5 -11 0 -14 -3 -6 -6z"/>
<path d="M8055 5040 c3 -5 8 -10 11 -10 2 0 4 5 4 10 0 6 -5 10 -11 10 -5 0
-7 -4 -4 -10z"/>
<path d="M4124 4819 c-19 -22 -19 -22 4 -8 12 8 22 17 22 21 0 12 -6 9 -26
-13z"/>
<path d="M4175 4829 c-11 -17 -2 -18 19 -3 17 12 17 14 4 14 -9 0 -20 -5 -23
-11z"/>
<path d="M8710 4740 c0 -5 6 -10 14 -10 8 0 18 5 21 10 3 6 -3 10 -14 10 -12
0 -21 -4 -21 -10z"/>
<path d="M3855 4727 c-16 -5 -39 -13 -50 -18 -11 -4 -88 -7 -172 -7 -147 1
-153 0 -197 -26 -25 -14 -52 -36 -60 -48 -9 -12 -26 -28 -38 -34 l-23 -12 28
-11 c16 -6 36 -11 46 -11 9 0 22 -5 29 -12 9 -9 15 -9 23 -1 7 7 30 10 60 6
66 -8 99 1 92 27 -4 15 0 20 13 20 11 1 54 3 97 6 65 5 77 4 77 -9 0 -23 -16
-30 -79 -30 l-56 0 55 -17 c70 -21 163 -14 168 13 3 13 -2 16 -20 15 -17 -2
-23 2 -23 17 0 15 10 22 41 29 29 6 46 16 58 37 30 50 -7 85 -69 66z"/>
<path d="M4115 4669 c-11 -17 -2 -18 19 -3 17 12 17 14 4 14 -9 0 -20 -5 -23
-11z"/>
<path d="M4059 4653 c-13 -16 -12 -17 4 -4 9 7 17 15 17 17 0 8 -8 3 -21 -13z"/>
<path d="M3326 4634 c-6 -15 -4 -15 11 -3 10 7 20 15 22 16 2 2 -3 3 -11 3 -9
0 -19 -7 -22 -16z"/>
<path d="M9220 4642 c0 -4 15 -15 33 -24 17 -8 51 -25 74 -37 27 -15 55 -21
80 -19 l38 3 -45 22 c-106 50 -180 73 -180 55z"/>
<path d="M5560 4470 c-18 -12 -2 -12 25 0 13 6 15 9 5 9 -8 0 -22 -4 -30 -9z"/>
<path d="M5405 4404 l-30 -25 30 12 c38 16 49 25 38 32 -4 3 -22 -6 -38 -19z"/>
<path d="M5264 4314 c-18 -14 -18 -15 4 -4 12 6 22 13 22 15 0 8 -5 6 -26 -11z"/>
<path d="M6388 33 c7 -3 16 -2 19 1 4 3 -2 6 -13 5 -11 0 -14 -3 -6 -6z"/>
</g>
</svg>
